<svg id="Layer_1" data-name="Layer 1" xmlns="http://www.w3.org/2000/svg" xmlns:xlink="http://www.w3.org/1999/xlink" viewBox="0 0 48 48"><defs><style>.cls-1{opacity:0.22;}.cls-2{fill:#424242;}.cls-3{fill:#6e42e8;}.cls-4{fill:#220b60;}.cls-5{fill:url(#linear-gradient);}.cls-6{fill:url(#linear-gradient-2);}.cls-7{fill:url(#linear-gradient-3);}</style><linearGradient id="linear-gradient" x1="18.04" y1="22.57" x2="23.11" y2="22.57" gradientTransform="translate(21.94 -8.06) rotate(45)" gradientUnits="userSpaceOnUse"><stop offset="0" stop-color="#acaab6"/><stop offset="1" stop-color="#dedce8"/></linearGradient><linearGradient id="linear-gradient-2" x1="23.08" y1="27.61" x2="28.14" y2="27.61" gradientTransform="translate(26.97 -10.15) rotate(45)" xlink:href="#linear-gradient"/><linearGradient id="linear-gradient-3" x1="9.96" y1="31.21" x2="40.97" y2="31.21" gradientUnits="userSpaceOnUse"><stop offset="0" stop-color="#8a68e8"/><stop offset="1" stop-color="#5939d1"/></linearGradient></defs><g class="cls-1"><rect class="cls-2" x="25.28" y="12.19" width="3.24" height="16.09" transform="translate(-6.43 24.95) rotate(-45)"/><path class="cls-2" d="M35.81,15.72l-1.6-1.59L33.05,13,30.8,10.71a2.78,2.78,0,0,0-3.94,0L23.8,13.77h0l-.53.53,9.61,9.61v0h0l3.58-3.58a2.77,2.77,0,0,0,0-3.93Z"/><path class="cls-2" d="M39.09,8.87h0a1.33,1.33,0,0,0-1.88,0l-4,4,1.87,1.87,4-4A1.33,1.33,0,0,0,39.09,8.87Z"/><path class="cls-2" d="M27.34,25.45a.6.6,0,0,0-.84,0L23,28.94l-4.07-4.07,3.49-3.49a.6.6,0,0,0,0-.84l-.12-.13a.6.6,0,0,0-.84,0L18,23.91l-2.7-2.71L13,23.49,24.35,34.87l2.29-2.29L24,29.91l3.5-3.49a.61.61,0,0,0,0-.85Z"/><path class="cls-2" d="M13.81,24.21h0l-3.58,3.58a2.8,2.8,0,0,0,0,3.94l1.89,1.88L8.29,37.44a1.33,1.33,0,0,0,0,1.88h0a1.33,1.33,0,0,0,1.87,0L14,35.49,15.9,37.4a2.8,2.8,0,0,0,3.94,0l3.58-3.58h0Z"/></g><rect class="cls-3" x="26.28" y="12.19" width="3.24" height="16.09" transform="translate(61.94 14.82) rotate(135)"/><path class="cls-3" d="M37.47,16.38a2.77,2.77,0,0,1,0,3.93l-3.58,3.58-9.61-9.6,3.58-3.58a2.78,2.78,0,0,1,3.94,0L34.05,13l1.16,1.17,1.6,1.59Z"/><path class="cls-4" d="M33.81,12.72l4-4a1.33,1.33,0,0,1,1.88,0h0a1.32,1.32,0,0,1,0,1.87l-4,4Z"/><path class="cls-4" d="M8.83,39.32a1.35,1.35,0,0,1,0-1.88l4-4,.4.43,1.46,1.46-4,4a1.35,1.35,0,0,1-1.88,0Z"/><path class="cls-5" d="M17.62,21.77h5.55a.59.59,0,0,1,.59.59v.18a.59.59,0,0,1-.59.59H17.62a0,0,0,0,1,0,0V21.77a0,0,0,0,1,0,0Z" transform="translate(-9.81 21.21) rotate(-45)"/><path class="cls-6" d="M22.66,26.8h5.55a.59.59,0,0,1,.59.59v.18a.59.59,0,0,1-.59.59H22.66a0,0,0,0,1,0,0V26.8A0,0,0,0,1,22.66,26.8Z" transform="translate(-11.9 26.25) rotate(-45)"/><rect class="cls-4" x="28.96" y="12.05" width="0.76" height="13.59" transform="translate(-4.73 26.26) rotate(-45)"/><rect class="cls-3" x="18.68" y="19.79" width="3.24" height="16.09" transform="translate(-13.73 22.51) rotate(-45)"/><path class="cls-7" d="M24,33.82,20.39,37.4a2.78,2.78,0,0,1-3.94,0L14.2,35.15,13,34l-2.25-2.25a2.8,2.8,0,0,1,0-3.94l3.58-3.58Z"/><rect class="cls-4" x="18.52" y="22.49" width="0.76" height="13.59" transform="translate(-15.17 21.94) rotate(-45)"/></svg>