<?xml version="1.0" encoding="utf-8"?>
<!-- Generator: Adobe Illustrator 25.4.1, SVG Export Plug-In . SVG Version: 6.00 Build 0)  -->
<svg version="1.1" id="Layer_1" xmlns="http://www.w3.org/2000/svg" xmlns:xlink="http://www.w3.org/1999/xlink" x="0px" y="0px"
	 viewBox="0 0 1702.1 951.8" style="enable-background:new 0 0 1702.1 951.8;" xml:space="preserve">
<style type="text/css">
	.st0{fill-rule:evenodd;clip-rule:evenodd;fill:#E9E8F4;}
	
		.st1{clip-path:url(#SVGID_00000113334086787328059610000014575327921666433938_);fill-rule:evenodd;clip-rule:evenodd;fill:#FAFAFC;}
	
		.st2{clip-path:url(#SVGID_00000113334086787328059610000014575327921666433938_);fill-rule:evenodd;clip-rule:evenodd;fill:#F5F5FA;}
	
		.st3{clip-path:url(#SVGID_00000113334086787328059610000014575327921666433938_);fill-rule:evenodd;clip-rule:evenodd;fill:#C1BEE0;}
	.st4{fill-rule:evenodd;clip-rule:evenodd;fill:#FEAB83;}
	.st5{fill-rule:evenodd;clip-rule:evenodd;fill:#9291A0;}
	.st6{fill-rule:evenodd;clip-rule:evenodd;fill:#6E62B5;}
	.st7{fill-rule:evenodd;clip-rule:evenodd;fill:#F2C059;}
	
		.st8{clip-path:url(#SVGID_00000158751771529903816650000006292198210601975448_);fill-rule:evenodd;clip-rule:evenodd;fill:#F8DFAA;}
	
		.st9{clip-path:url(#SVGID_00000158751771529903816650000006292198210601975448_);fill-rule:evenodd;clip-rule:evenodd;fill:#6E62B5;}
	
		.st10{clip-path:url(#SVGID_00000156546536041111648050000002897668149578364314_);fill-rule:evenodd;clip-rule:evenodd;fill:#FE925E;}
	.st11{fill-rule:evenodd;clip-rule:evenodd;fill:#303D5C;}
	.st12{fill-rule:evenodd;clip-rule:evenodd;}
	.st13{fill:none;stroke:#7C4125;stroke-width:2.2072;stroke-linecap:round;stroke-linejoin:round;stroke-miterlimit:10;}
	.st14{fill:none;stroke:#7C4125;stroke-width:2.1533;stroke-linecap:round;stroke-linejoin:round;stroke-miterlimit:10;}
	
		.st15{clip-path:url(#SVGID_00000126300517194239327910000015171750272572022973_);fill-rule:evenodd;clip-rule:evenodd;fill:#EEAF2B;}
	.st16{fill-rule:evenodd;clip-rule:evenodd;fill:#EEAF2B;}
	.st17{fill-rule:evenodd;clip-rule:evenodd;fill:#FEA377;}
	.st18{fill-rule:evenodd;clip-rule:evenodd;fill:#F7BE00;}
	
		.st19{clip-path:url(#SVGID_00000114756331869499307210000014965830947966724227_);fill-rule:evenodd;clip-rule:evenodd;fill:#386C81;}
	.st20{fill-rule:evenodd;clip-rule:evenodd;fill:#FD696C;}
	
		.st21{clip-path:url(#SVGID_00000170250574799789283060000008407001591353780151_);fill-rule:evenodd;clip-rule:evenodd;fill:#6E62B5;}
	.st22{fill-rule:evenodd;clip-rule:evenodd;fill:#9A6D55;}
	
		.st23{clip-path:url(#SVGID_00000012460179443649017720000010364724405881017519_);fill-rule:evenodd;clip-rule:evenodd;fill:#B18C75;}
	
		.st24{clip-path:url(#SVGID_00000012460179443649017720000010364724405881017519_);fill-rule:evenodd;clip-rule:evenodd;fill:#CAB0A1;}
	
		.st25{clip-path:url(#SVGID_00000012460179443649017720000010364724405881017519_);fill-rule:evenodd;clip-rule:evenodd;fill:#B18B74;}
	
		.st26{clip-path:url(#SVGID_00000012460179443649017720000010364724405881017519_);fill-rule:evenodd;clip-rule:evenodd;fill:#DFD0C7;}
	
		.st27{clip-path:url(#SVGID_00000012460179443649017720000010364724405881017519_);fill:none;stroke:#573A00;stroke-width:1.5504;stroke-linecap:round;stroke-linejoin:round;stroke-miterlimit:10;}
	.st28{fill-rule:evenodd;clip-rule:evenodd;fill:#FD8386;}
	
		.st29{clip-path:url(#SVGID_00000083780436087664093500000017795951744135796366_);fill-rule:evenodd;clip-rule:evenodd;fill:#FE925E;}
	.st30{fill:#FEAB83;}
	.st31{fill:#D44C59;}
	.st32{fill:none;stroke:#7C4125;stroke-width:2.0564;stroke-linecap:round;stroke-linejoin:round;stroke-miterlimit:10;}
	
		.st33{clip-path:url(#SVGID_00000168084716655269681310000005234829805921407657_);fill-rule:evenodd;clip-rule:evenodd;fill:#DF5255;}
	.st34{fill-rule:evenodd;clip-rule:evenodd;fill:#7E73BD;}
	.st35{fill-rule:evenodd;clip-rule:evenodd;fill:#5C4FA9;}
	.st36{fill-rule:evenodd;clip-rule:evenodd;fill:#E78450;}
	.st37{fill-rule:evenodd;clip-rule:evenodd;fill:#EFEFEF;}
	.st38{fill-rule:evenodd;clip-rule:evenodd;fill:#FABD2B;}
	
		.st39{clip-path:url(#SVGID_00000109722917704302203020000017441221026349523849_);fill-rule:evenodd;clip-rule:evenodd;fill:#F4AF06;}
	.st40{fill-rule:evenodd;clip-rule:evenodd;fill:#F6F6F6;}
	.st41{fill-rule:evenodd;clip-rule:evenodd;fill:#E9E9E9;}
	.st42{fill-rule:evenodd;clip-rule:evenodd;fill:#EA9264;}
	
		.st43{clip-path:url(#SVGID_00000057852501535308832410000007738125846656278712_);fill-rule:evenodd;clip-rule:evenodd;fill:#E5783F;}
	.st44{fill-rule:evenodd;clip-rule:evenodd;fill:#18101C;}
	.st45{fill-rule:evenodd;clip-rule:evenodd;fill:#19101C;}
	.st46{fill:#19101C;}
	.st47{fill-rule:evenodd;clip-rule:evenodd;fill:#262626;}
	.st48{fill:none;stroke:#793F22;stroke-width:2.2072;stroke-linecap:round;stroke-linejoin:round;stroke-miterlimit:10;}
	.st49{fill:none;stroke:#793F23;stroke-width:2.2072;stroke-linecap:round;stroke-linejoin:round;stroke-miterlimit:10;}
	.st50{fill:none;stroke:#000000;stroke-width:1.6064;stroke-linecap:round;stroke-linejoin:round;stroke-miterlimit:10;}
	.st51{fill-rule:evenodd;clip-rule:evenodd;fill:#F21B7E;}
	.st52{fill-rule:evenodd;clip-rule:evenodd;fill:#BDBADE;}
	
		.st53{clip-path:url(#SVGID_00000092452574457578072110000015174953327965217416_);fill-rule:evenodd;clip-rule:evenodd;fill:#B1ADD8;}
	.st54{fill-rule:evenodd;clip-rule:evenodd;fill:#D5D8EB;}
	.st55{fill:#6D77B9;}
	.st56{fill-rule:evenodd;clip-rule:evenodd;fill:#A19CD0;}
	.st57{fill-rule:evenodd;clip-rule:evenodd;fill:#F3F3F3;}
	.st58{fill-rule:evenodd;clip-rule:evenodd;fill:#E28F8B;}
	
		.st59{clip-path:url(#SVGID_00000029729840845373407600000013249014878649051533_);fill-rule:evenodd;clip-rule:evenodd;fill:#D3D3D3;}
	.st60{fill-rule:evenodd;clip-rule:evenodd;fill:#6DC7C5;}
	.st61{fill-rule:evenodd;clip-rule:evenodd;fill:#D3D3D3;}
	.st62{fill-rule:evenodd;clip-rule:evenodd;fill:#FE9A6A;}
	.st63{fill-rule:evenodd;clip-rule:evenodd;fill:#EDEDED;}
	
		.st64{clip-path:url(#SVGID_00000116923116056897428260000009670464778041255602_);fill-rule:evenodd;clip-rule:evenodd;fill:#D3D3D3;}
	.st65{fill-rule:evenodd;clip-rule:evenodd;fill:#2C3855;}
	
		.st66{clip-path:url(#SVGID_00000077306045028211829880000008617749304993306551_);fill-rule:evenodd;clip-rule:evenodd;fill:#FE8B53;}
	.st67{fill:#CC632C;}
	.st68{fill-rule:evenodd;clip-rule:evenodd;fill:#FF7474;}
	.st69{fill:none;stroke:#B14D18;stroke-width:2.2072;stroke-linecap:round;stroke-linejoin:round;stroke-miterlimit:10;}
	.st70{fill-rule:evenodd;clip-rule:evenodd;fill:#EAEAEA;}
	.st71{fill-rule:evenodd;clip-rule:evenodd;fill:#8FD4D3;}
	.st72{fill-rule:evenodd;clip-rule:evenodd;fill:#B7B7B7;}
	.st73{fill-rule:evenodd;clip-rule:evenodd;fill:#808080;}
	.st74{fill-rule:evenodd;clip-rule:evenodd;fill:#A4A4A4;}
</style>
<g>
	<path class="st0" d="M136.3,947h1431.9l0.5,0C1753.9,792.2,1817.3-9,1279.5,0.1c-157.1,2.7-285.8,200.7-476,212.5
		c-209.6,13-508.7-154.1-689.4,31.3C-59.8,422.3-20.9,797.2,136.3,947L136.3,947z"/>
	<g>
		<defs>
			<path id="SVGID_1_" d="M136.3,947h1431.9l0.5,0C1753.9,792.2,1817.3-9,1279.5,0.1c-157.1,2.7-285.8,200.7-476,212.5
				c-209.6,13-508.7-154.1-689.4,31.3C-59.8,422.3-20.9,797.2,136.3,947L136.3,947z"/>
		</defs>
		<clipPath id="SVGID_00000090283799405691286410000011070173631750002593_">
			<use xlink:href="#SVGID_1_"  style="overflow:visible;"/>
		</clipPath>
		
			<path style="clip-path:url(#SVGID_00000090283799405691286410000011070173631750002593_);fill-rule:evenodd;clip-rule:evenodd;fill:#FAFAFC;" d="
			M2333,826.7L701.8,789.1c0,0,33.1-46,108.5-49c75.3-2.9,121-56.2,169.5-29.7c48.4,26.5,60.1-19,85.6-12.7
			c25.6,6.3,32.8,6.1,53.8,25.7c0,0,172.5-120.6,147.6-4.4c0,0,66.6-57.8,116.7-12.6c0,0,28.4-127.6,203.8-98.1
			c0,0,91.5-88.1,170.3-9c78.8,79.1,27,123.6,27,123.6s56.3,6.2,95.2,48.5c0,0,95.8,10.9,155.8,27.8
			C2095.5,816,2333,826.7,2333,826.7L2333,826.7z"/>
		
			<path style="clip-path:url(#SVGID_00000090283799405691286410000011070173631750002593_);fill-rule:evenodd;clip-rule:evenodd;fill:#FAFAFC;" d="
			M1517.4,259.9l-483.5-11.2c0,0,9.8-13.6,32.1-14.5c22.3-0.9,35.9-16.7,50.2-8.8c14.4,7.9,17.8-5.6,25.4-3.8
			c7.6,1.9,9.7,1.8,16,7.6c0,0,51.1-35.8,43.8-1.3c0,0,19.7-17.1,34.6-3.7c0,0,8.4-37.8,60.4-29.1c0,0,27.1-26.1,50.5-2.7
			c23.4,23.4,8,36.6,8,36.6s16.7,1.8,28.2,14.4c0,0,28.4,3.2,46.2,8.2C1447,256.7,1517.4,259.9,1517.4,259.9L1517.4,259.9z"/>
		
			<path style="clip-path:url(#SVGID_00000090283799405691286410000011070173631750002593_);fill-rule:evenodd;clip-rule:evenodd;fill:#F5F5FA;" d="
			M2262.6,221.3l-609.3-14.1c0,0,12.4-17.2,40.5-18.3c28.1-1.1,45.2-21,63.3-11.1c18.1,9.9,22.4-7.1,32-4.7
			c9.6,2.4,12.2,2.3,20.1,9.6c0,0,64.4-45.1,55.1-1.6c0,0,24.9-21.6,43.6-4.7c0,0,10.6-47.7,76.1-36.6c0,0,34.2-32.9,63.6-3.4
			c29.4,29.5,10.1,46.2,10.1,46.2s21,2.3,35.6,18.1c0,0,35.8,4.1,58.2,10.4C2173.8,217.3,2262.6,221.3,2262.6,221.3L2262.6,221.3z"
			/>
		
			<path style="clip-path:url(#SVGID_00000090283799405691286410000011070173631750002593_);fill-rule:evenodd;clip-rule:evenodd;fill:#FAFAFC;" d="
			M-276.5,473.5l609.3-14.1c0,0-12.4-17.2-40.5-18.3c-28.1-1.1-45.2-21-63.3-11.1c-18.1,9.9-22.4-7.1-32-4.7
			c-9.6,2.4-12.2,2.3-20.1,9.6c0,0-64.4-45.1-55.1-1.6c0,0-24.9-21.6-43.6-4.7c0,0-10.6-47.7-76.1-36.6c0,0-34.2-32.9-63.6-3.4
			c-29.4,29.5-10.1,46.2-10.1,46.2s-21,2.3-35.6,18.1c0,0-35.8,4.1-58.2,10.4C-187.8,469.5-276.5,473.5-276.5,473.5L-276.5,473.5z"
			/>
		
			<path style="clip-path:url(#SVGID_00000090283799405691286410000011070173631750002593_);fill-rule:evenodd;clip-rule:evenodd;fill:#C1BEE0;" d="
			M1060,953.8V785.3h9.7v-35.7h9.9v-54.8h9.9v54.8h10.9v35.7h9v-1.2h13.2v-10.3h18.7v-9.1h8.2v-77.6h11.1v-21.6h10.3v-19.3h46.8v16
			h13.6v24.9h10.7v74.5h31.3v44.8h5.3v-85.9h14.4v-53h45.5v53h5.7v-18.3h12.5v-16.9h6.3v-15h18.5v15h30.6v16.9h21.6v10h-9.2v25.5
			h6.4v11.6h-6.4v53.6h17.7v-30.2h8.4v-46.4h8.3v46.4h3.8v-7.5h7.3v-12.6l25-31.7l25.6,31.7v12.6h5.6v-15.8l15,8.7v-46.4l34.2,16.7
			v47.1l11.1,6.3v-6.8h9.7v-38.4h11.7v-58.9h10.6v58.9h10.7v38.4h22.4v-68h-8.1v-14.7h8.1v-32.3h-11.7v-12.7h27.4v-21.5h38.8v-19
			h23.5v19h8.1v21.5h15.9v23.3h7.3v-67.2h20.5V500h18.6v103.2h18.7v67.2h18.3v109.1h6.7v-56.9h39.7V628h13.6v-31.6h17.3v-20.3h59.4
			v24.5h13.1V628h14.1v98.4h10.4v11.6h23.7v13.1h16.7v1.5h11.5v-45.3h13.8v-69.6h12.5v69.6h12.6v45.3h12.4v201.2H1060L1060,953.8z
			 M2052.2,942.5V759h-7.2v19.7h5v9h-5v42.3h5V928h-5v14.6H2052.2L2052.2,942.5z"/>
		
			<path style="clip-path:url(#SVGID_00000090283799405691286410000011070173631750002593_);fill-rule:evenodd;clip-rule:evenodd;fill:#C1BEE0;" d="
			M813.9,1005.8V588.2h-8.5v-31.3h-8.7v-48H788v48h-9.6v31.3h-7.9v-1H759v-9h-16.4v-8h-7.2v-68h-9.8v-18.9h-9v-16.9h-41v14h-11.9
			v21.8h-9.4v65.3h-27.4v39.3h-4.7v-75.3L620.6,755h-51v46.4h-5v-16.1h-11v-14.8H548v-13.1h-16.2v13.1H505v14.8h-18.9v8.8h8.1v22.3
			h-5.6v10.1h5.6v47h-15.5V847h-7.4v-40.7H464V847h-3.4v-6.5h-6.4v-11l-21.9-27.8l-22.5,27.8v11H405v-13.9l-13.1,7.6v-40.6
			l-29.9,14.6v41.3l-9.7,5.5V849h-8.5v-33.6h-10.3v-51.6h-9.3v51.6h-9.4V849h-19.7v-59.6h7.1v-12.8h-7.1v-28.3h10.3v-11.1h-24v-18.8
			h-34v-16.6h-20.6v16.6h-7.1v18.8h-13.9v20.4h-6.4v-58.9h-18v-90.5h-16.3v90.5h-16.4v58.9h-16.1v95.6h-5.9v-49.9H91.9v-82.9H80
			v-27.7H64.9v-17.8H12.8v21.5H1.3v24h-12.4v86.3h-9.1v10.2H-41v11.5h-14.7v1.3h-10v-39.7h-12.1v-61h-11v61h-11.1v39.7h-10.8v176.3
			H813.9L813.9,1005.8z M-55.6,996V835.1h6.3v17.3h-4.3v7.8h4.3v37h-4.3v85.9h4.3V996H-55.6L-55.6,996z"/>
		
			<path style="clip-path:url(#SVGID_00000090283799405691286410000011070173631750002593_);fill-rule:evenodd;clip-rule:evenodd;fill:#C1BEE0;" d="
			M1251.6,839l-318.4-7.9l22.4-275.4h18.3v109.1h6.7v-56.9h39.7v-94.6h13.6v-31.6h17.3v-20.3h59.4v24.5h13.1v27.4h14.1v98.4h10.4
			v11.6h23.7v13.1h16.7v1.5h11.5v-45.3h13.8V523h12.5v69.6h12.6v45.3h12.4V839L1251.6,839z M1188.8,827.8V644.2h-7.2v19.7h5v9h-5
			v42.3h5v98.1h-5v14.6H1188.8L1188.8,827.8z"/>
		
			<path style="clip-path:url(#SVGID_00000090283799405691286410000011070173631750002593_);fill-rule:evenodd;clip-rule:evenodd;fill:#C1BEE0;" d="
			M724.2,1033.9l279-6.9l-19.6-300.3v58.9h-16.1v95.6h-5.9v-49.9h-34.8v-82.9h-11.9v-27.7h-15.1v-17.8h-52.1v21.5h-11.5v24h-12.4
			v86.3h-9.1v10.2h-20.8v11.5h-14.7v1.3h-10v-39.7H757v-61h-11v61H735v39.7h-10.8V1033.9L724.2,1033.9z M779.2,1024V863.1h6.3v17.3
			h-4.3v7.9h4.3v37h-4.3v85.9h4.3v12.8H779.2L779.2,1024z"/>
		
			<path style="clip-path:url(#SVGID_00000090283799405691286410000011070173631750002593_);fill-rule:evenodd;clip-rule:evenodd;fill:#C1BEE0;" d="
			M1550.5,171.9c-1.3-0.5-2.2-1.7-2.2-3.2c0-1.9,1.6-3.4,3.5-3.4c1.9,0,3.5,1.5,3.5,3.4c0,1.4-0.9,2.7-2.2,3.2v59.6
			c2.9,0.6,5.2,3.1,5.2,6.2c0,2.2-1.2,4.2-2.9,5.3v85.1c3.5,1.4,6,4.7,6,8.6c0,2.7-1.2,5.1-3.1,6.8h13.2v8.7h5.1v19.9h1.9v12.5
			h-14.1l23.2,393.5h-71.3l23.2-393.5h-14.1v-12.5h1.9v-19.9h5.1v-8.7h13.2c-1.9-1.7-3.1-4.1-3.1-6.8c0-3.9,2.5-7.3,6-8.6V243
			c-1.8-1.1-2.9-3.1-2.9-5.3c0-3,2.2-5.6,5.2-6.2V171.9L1550.5,171.9z"/>
	</g>
	<path class="st4" d="M930.4,599c0,0-26.1,234.4-57.4,277.6l22.9,10.6c0,0,115.5-206.6,112.1-259.7C1008,627.5,993.8,545,930.4,599
		L930.4,599z"/>
	<path class="st4" d="M896,887.1c-24.9,28.3-20.4,33.9-35.1,46.7c0,0-17.5,15.6-17.3,8.4c0,0-5.2,1.5-4.5-4.2c0,0-9-0.3-7.1-7.3
		c1.9-7-1.1-12.3,4.4-21.3c0,0,42.6-42.4,54-45.8L896,887.1L896,887.1z"/>
	<path class="st5" d="M794.9,600.2l73-108.1l-0.1-0.1c1.7-2,4.9-4.8,9.2-4.8c6.8-0.1,15.5-5.8,14.4-14.5c0,0-0.5-3.8-5-1.6l-4.5,2.4
		l-5.1,0l-4.5-5.1l1.2-5.7l8.2-6.7c0,0,4.6-5.8-5.1-5.9c0,0-10.4,0-16.7,12.1c-6.3,12.1-7.3,19.5-9.1,21.2l0.3,0.2l-72.6,107.4
		c-1.1,0.1-2.1,0.3-3.2,0.5c-9.1,2.5-14.5,11.9-12.1,21c2.5,9.1,11.9,14.5,21,12.1c9.1-2.5,14.5-11.9,12.1-21
		C795.9,602.5,795.4,601.3,794.9,600.2L794.9,600.2z M778.1,600.2l-4.7,3.3l-1,5.6l3.3,4.7l5.6,1l4.7-3.3l1-5.6l-3.3-4.7
		L778.1,600.2L778.1,600.2z"/>
	<path class="st6" d="M1037.1,736.1c0,0,14.2-247.8-32.5-291.3c-46.7-43.5-114.9,24-91.6,123.7c23.2,99.8,29.5,103.4,44.8,146.8
		C970.3,750.7,994.2,758.6,1037.1,736.1L1037.1,736.1z"/>
	<path class="st7" d="M889.1,947h255.6c-5.8-42.8-22.3-175.5-13-245.2c28.7-103.6,38.3-207.5,1-267.6c0,0-68.7-78.1-137.1-40.7
		c-68.5,37.3-93.7,104.2-94.6,186.8C898.8,779.7,872.2,848.9,889.1,947L889.1,947z"/>
	<g>
		<defs>
			<path id="SVGID_00000087406726204624917660000000517702872704534718_" d="M889.1,947h255.6c-5.8-42.8-22.3-175.5-13-245.2
				c28.7-103.6,38.3-207.5,1-267.6c0,0-68.7-78.1-137.1-40.7c-68.5,37.3-93.7,104.2-94.6,186.8C898.8,779.7,872.2,848.9,889.1,947
				L889.1,947z"/>
		</defs>
		<clipPath id="SVGID_00000167384824034164142980000011039646866930838150_">
			<use xlink:href="#SVGID_00000087406726204624917660000000517702872704534718_"  style="overflow:visible;"/>
		</clipPath>
		
			<path style="clip-path:url(#SVGID_00000167384824034164142980000011039646866930838150_);fill-rule:evenodd;clip-rule:evenodd;fill:#F8DFAA;" d="
			M886.1,588.7c59.8,21.3,112.2,44.1,180.1,24.7c25.1-7.2,49.2-18.6,70.2-31.2c3-1.8,29.6-21,29.7-15.9c0.2,5.9,0.3,37.4-2.5,41.2
			c-3.8,5.3-30.6,11.5-37.2,14.3c-48.2,20-105.3,30.3-159,16c-29.2-7.8-56.1-20.8-78.2-37.3c-1.3-1-21.5-13.7-18.3-15.7"/>
		
			<path style="clip-path:url(#SVGID_00000167384824034164142980000011039646866930838150_);fill-rule:evenodd;clip-rule:evenodd;fill:#F8DFAA;" d="
			M846.8,732.7c60.4,20.8,113.2,42.9,182.6,26.5c25.6-6,50.4-16,72-27.1c3.1-1.6,30.5-18.6,30.5-13.9c0,5.4-0.4,34.3-3.3,37.7
			c-4,4.7-31.3,9.9-38.1,12.3c-49.4,17.2-107.6,25.5-161.9,11.2c-29.5-7.7-56.6-20.3-78.7-35.8c-1.3-0.9-21.6-13-18.3-14.8"/>
		
			<path style="clip-path:url(#SVGID_00000167384824034164142980000011039646866930838150_);fill-rule:evenodd;clip-rule:evenodd;fill:#6E62B5;" d="
			M1047.8,404.6c-13.6,16.9-48.8,53.7-60.1,82.7c-21.4,54.6-17.3,87.1-23.8,99.3c-0.5,0.9-5.6-63.6-5.3-64.5
			c4.8-14.3,15.8-42.5,21.8-56.3c9.1-20.9,21.4-40.6,29.7-61.9c1.7-4.3,4.8-19.3,9.8-21.5C1024.3,380.5,1042.8,402.2,1047.8,404.6
			L1047.8,404.6z"/>
		
			<path style="clip-path:url(#SVGID_00000167384824034164142980000011039646866930838150_);fill-rule:evenodd;clip-rule:evenodd;fill:#6E62B5;" d="
			M974.3,503.9c0,0-32.6,224,5.4,487.4l-41.7-0.4c0,0-26.4-416.1,32.8-491.7L974.3,503.9L974.3,503.9z"/>
	</g>
	<path class="st4" d="M1010.8,356.6c0,0-2.7,34.9-1.8,46.2c-1.9,7.6,38.5,13.2,42.7-2.3l-6.2-80.7L1010.8,356.6L1010.8,356.6z"/>
	<g>
		<defs>
			<path id="SVGID_00000057845872437587037300000014645021660163143051_" d="M1010.8,356.6c0,0-2.7,34.9-1.8,46.2
				c-1.9,7.6,38.5,13.2,42.7-2.3l-6.2-80.7L1010.8,356.6L1010.8,356.6z"/>
		</defs>
		<clipPath id="SVGID_00000054948068947150545440000015623904880045252244_">
			<use xlink:href="#SVGID_00000057845872437587037300000014645021660163143051_"  style="overflow:visible;"/>
		</clipPath>
		
			<path style="clip-path:url(#SVGID_00000054948068947150545440000015623904880045252244_);fill-rule:evenodd;clip-rule:evenodd;fill:#FE925E;" d="
			M1065.9,388.5c0.1-1.1-1,1.3-1.7,1.7c-1.4,0.9-3,1.4-4.6,1.9c-4.7,1.5-9.6,2.5-14.7,3c-14.7,1.5-32.5-0.8-49-9.6
			c-3.9-2.1-15.9-8.7-16.8-15.9c-0.6-4.6,4.6-6.7,6.7-8.1c9.6-5.9,19.8-10.6,30-15.1c13.9-6.2,28.1-11.8,42.7-16.5
			c4.7-1.5,12.6-5.2,18.7,1.3c8.2,8.7,13.5,29.5,19,40.8"/>
	</g>
	<path class="st11" d="M1092.1,295.1c0-3.2-0.4-6.8-0.2-8.7c0.4-3.7,0.4-7.4,0.2-11c-0.9-15.7-4-32.1-10.2-46.6
		c-4.9-11.6-120.1-0.9-119.4,1.6c1.1,4.3-2.5,11.9-3.2,16.2c-1.8,11.4-2.6,22.9-2.6,34.4c0,5.5-1.1,13.8,4,17.7
		c6.6,5,17.7,6.4,25.3,8.4c7.1,1.9,14.3,3.5,21.6,4.5c11.1,1.5,22.2,2.1,33.3,1.8c16.5-0.4,37.7-1.6,51-12.6"/>
	<path class="st4" d="M967.3,290.7c0,0,0.1,46.7,22.6,73.6c8.4,10,18.9,13.6,34.6,14.3c14,0.6,27.4-2.3,35.4-10
		c25.1-24,23.2-73.2,23.2-73.2c7.5-22.6-3.5-37.9-19.5-67.8l-70.9-0.6C967.2,246.3,957.8,256.3,967.3,290.7L967.3,290.7z"/>
	<path d="M1041.8,279.9c0,0,6.4-7.6,17.9,1.1c3.2,2.4-2.9,0.3-8.7,0.5C1044.7,281.7,1038.4,283.8,1041.8,279.9"/>
	<path d="M1011.2,279.9c0,0-6.4-7.6-17.9,1.1c-3.2,2.4,2.9,0.3,8.7,0.5C1008.3,281.7,1014.5,283.8,1011.2,279.9"/>
	<path class="st12" d="M1048,294.6c2.3,0,4.1,1.8,4.1,4.1c0,2.3-1.8,4.1-4.1,4.1c-2.3,0-4.1-1.8-4.1-4.1
		C1043.9,296.5,1045.8,294.6,1048,294.6L1048,294.6z"/>
	<path class="st12" d="M1002.3,294.6c-2.3,0-4.1,1.8-4.1,4.1c0,2.3,1.8,4.1,4.1,4.1c2.3,0,4.1-1.8,4.1-4.1
		C1006.3,296.5,1004.5,294.6,1002.3,294.6L1002.3,294.6z"/>
	<path class="st12" d="M1041.4,295.8c0,0,6.3-7.3,13.2-1.2c0,0-2.6-7.3-9.8-3.5C1041.4,292.8,1041.4,295.8,1041.4,295.8
		L1041.4,295.8z"/>
	<path class="st12" d="M1008.9,295.8c0,0-6.3-7.3-13.2-1.2c0,0,2.6-7.3,9.8-3.5C1008.9,292.8,1008.9,295.8,1008.9,295.8
		L1008.9,295.8z"/>
	<path class="st13" d="M1028.5,298.7c0,0-5.1,24.2-4.6,29.4c0.4,4.1,7.4,2.2,7.4,2.2"/>
	<path class="st14" d="M1039.1,343.4c0,0-12.9,13.2-23.9,0.6"/>
	<path class="st11" d="M1085.2,298.4c-0.2-1.8-1.8,0.5-2-1.3c-0.9-5.3-0.6-14.8-1.9-20c-0.8-3.3-1.8-6.6-2.8-9.9
		c-3.9-12.4-9.3-34.7-26-32.6c-6.1,0.8-11.5,4-16.4,7.7c-3.1,2.4-7.3,6.1-11.5,6.2c-5.6,0-11.8-6.9-16.4-9.4
		c-3.9-2.1-8.2-4.1-12.6-4.2c-8.5-0.2-15.9,7.4-20.7,13.8c-8.6,11.4-9.3,30.1-7.5,43.1c0.5,3.9,4.8,14.7,0,16.9
		c-3.7,1.7-10-8.7-9.9-11.5c0.3-7.1-1.8-10.8-0.4-28.8c0.8-10.4,3.3-20.8,7.9-30.3c14.9-30.5,60.4-43.6,90-28.9
		c30.5,15.1,46.1,56.8,32.1,88.3"/>
	<path class="st7" d="M1089.5,261.4c0,0,9.4-73.5-46.3-85.2c-55.1-11.6-85.5,11.4-87.1,83.5L1089.5,261.4L1089.5,261.4z"/>
	<g>
		<defs>
			<path id="SVGID_00000115490342592154784900000013306651856422461070_" d="M1089.5,261.4c0,0,9.4-73.5-46.3-85.2
				c-55.1-11.6-85.5,11.4-87.1,83.5L1089.5,261.4L1089.5,261.4z"/>
		</defs>
		<clipPath id="SVGID_00000123413219727773620860000016321441365741339552_">
			<use xlink:href="#SVGID_00000115490342592154784900000013306651856422461070_"  style="overflow:visible;"/>
		</clipPath>
		
			<path style="clip-path:url(#SVGID_00000123413219727773620860000016321441365741339552_);fill-rule:evenodd;clip-rule:evenodd;fill:#EEAF2B;" d="
			M1031.3,170.4c1.5-4.9-0.8-10.4-5.4-12.4c-4.8-2.1-10.3,0.3-12.3,5.4c-0.7,1.9-1.1,4.2-1.2,6.8c-0.1,3,0.5,6.5,0.5,8.7
			c0.2,9.2,0.1,18.3,0.2,27.5c0.3,29.7,0.4,59.5,0.8,89.2c0.1,5.5,4.4,9.9,9.6,9.9c5.2,0,9.4-4.5,9.3-10
			c-0.4-29.7-0.5-59.4-0.8-89.1c-0.1-9.2,0-18.4-0.2-27.6C1031.8,176.6,1031.4,171.1,1031.3,170.4L1031.3,170.4z"/>
	</g>
	<path class="st16" d="M1090.5,247.2c0,0-111.3,22-134.1-2.4c0,0-24.7,24.6,26,31.2C1026.8,281.8,1125.1,274,1090.5,247.2
		L1090.5,247.2z"/>
	<path class="st4" d="M972.6,328.8c0.1-1.4,3.1-9.3,2-17c-1.3-9.3-6.8-18.4-7.3-18.7c-0.6-0.4-1.1-0.7-1.2-0.8
		c-0.7-0.3-1.4-0.5-2.2-0.6c-2.1-0.4-4.2,0.2-6,1.4c-5,3.4-6.6,10.9-6.5,16.5c0.1,7.7,2.8,16.4,8.6,21.8
		C964.5,335.7,971.2,335,972.6,328.8L972.6,328.8z"/>
	<path class="st4" d="M1080.1,328.8c-0.1-1.4-3.1-9.3-2-17c1.3-9.3,6.8-18.4,7.3-18.7c0.6-0.4,1.1-0.7,1.2-0.8
		c0.7-0.3,1.4-0.5,2.2-0.6c2.1-0.4,4.2,0.2,6,1.4c5,3.4,6.6,10.9,6.5,16.5c-0.1,7.7-2.8,16.4-8.6,21.8
		C1088.2,335.7,1081.4,335,1080.1,328.8L1080.1,328.8z"/>
	<path class="st11" d="M1083.1,295.4c0,0-17.4,76.5-34.2,67.6c-16.9-8.9-24.8-12-40.6-0.5c-15.8,11.5-41.4-70.9-41.4-70.9
		s3.3,76.7,39.8,87c6.8,1.9,13.1,4.1,19,3.9c28.1-1,46-19.6,52.2-46.5C1085.2,303.6,1083.1,295.4,1083.1,295.4L1083.1,295.4z"/>
	<path class="st4" d="M1116.7,714.5c0,0-234.4-99.8-267.5-142.5l-2.3,33.6c0,0,167.5,164.4,220,176.2
		C1067,781.8,1151.2,791.5,1116.7,714.5L1116.7,714.5z"/>
	<path class="st6" d="M1120.7,773.7c0,0,52.4-272.2,12.7-323.3c-39.7-51.1-118.7,5.4-111.6,108.9c4,59,11,94.3,16.2,122.3
		C1041.9,702.9,1087,798,1120.7,773.7L1120.7,773.7z"/>
	<path class="st4" d="M856.8,585c0,0-22.7-45.1-42.1-51.2c0,0-14.9-4-13.1,4.9c0,0-10.5,2.8-8.6,9.5c0,0-8.5,6-5.2,13.6
		c3.4,7.6-8.8,7.4-1.4,15.2c0,0,62.1,33.8,73.9,31L856.8,585L856.8,585z"/>
	<path class="st17" d="M677,627.8c0,0,173.6,172.2,226.2,186.3l-13.4,20.1c0,0-224.6-89.7-256.1-133.9
		C633.7,700.3,591.9,625.7,677,627.8L677,627.8z"/>
	<path class="st17" d="M893.3,814.1c0,0,45.1-3.8,59.3,8.1c0,0,10.4,9.4,2.9,12.3c0,0,3.1,9.3-2.8,11c0,0-0.2,9.3-7.6,10.3
		c-7.3,1-1.1,10.2-10.6,8.2c0,0-56.3-31.5-60.1-41.8L893.3,814.1L893.3,814.1z"/>
	<path class="st18" d="M628.5,770.2c0,0-54.6-247.7-14.6-299.1c40-51.5,119.8,5.5,112.6,109.9c-7.2,104.4-12.9,109.1-21.3,155.4
		C698.3,774.1,675.5,785.9,628.5,770.2L628.5,770.2z"/>
	<g>
		<defs>
			<path id="SVGID_00000075856832933884033950000011420731189754275464_" d="M628.5,770.2c0,0-54.6-247.7-14.6-299.1
				c40-51.5,119.8,5.5,112.6,109.9c-7.2,104.4-12.9,109.1-21.3,155.4C698.3,774.1,675.5,785.9,628.5,770.2L628.5,770.2z"/>
		</defs>
		<clipPath id="SVGID_00000054947204702825032050000009008508668824909727_">
			<use xlink:href="#SVGID_00000075856832933884033950000011420731189754275464_"  style="overflow:visible;"/>
		</clipPath>
		
			<path style="clip-path:url(#SVGID_00000054947204702825032050000009008508668824909727_);fill-rule:evenodd;clip-rule:evenodd;fill:#386C81;" d="
			M700.5,605.9c0.6,1.1-5.9,15.4-6.5,17.2c-6.3,17.9-11.8,36-15.8,54.6c-4,18.9-9.7,41.5-1.4,60.1c4.5,10,11.9,11,21,14.3
			c2.4,0.9,3.7,2.6,2.2,5.1c-3.9,6.5-12.8,11.7-19.2,15.2c-23.6,12.7-57,16.3-71.3-11.1c-14.3-27.5-4.7-62.1,5.4-89.3
			c8-21.4,18.6-41.5,31.1-60.7c10.2-15.6,21.7-29,26.6-46.3"/>
	</g>
	<path class="st20" d="M530.9,946.6c-0.3-1.3-0.4-2.8-0.2-4.3c0,0,24-160.8,13.7-237.7c-26.4-95.1-35.2-190.6-0.9-245.7
		c0,0,63.1-71.7,125.9-37.4c62.9,34.3,86.1,95.7,86.9,171.5c2.1,194.4,29.6,254.1,7.6,353.5H530.9L530.9,946.6z"/>
	<g>
		<defs>
			<path id="SVGID_00000093167375591353158150000005346401571546274988_" d="M530.9,946.6c-0.3-1.3-0.4-2.8-0.2-4.3
				c0,0,24-160.8,13.7-237.7c-26.4-95.1-35.2-190.6-0.9-245.7c0,0,63.1-71.7,125.9-37.4c62.9,34.3,86.1,95.7,86.9,171.5
				c2.1,194.4,29.6,254.1,7.6,353.5H530.9L530.9,946.6z"/>
		</defs>
		<clipPath id="SVGID_00000044144605603214705040000009602108709200116633_">
			<use xlink:href="#SVGID_00000093167375591353158150000005346401571546274988_"  style="overflow:visible;"/>
		</clipPath>
		
			<path style="clip-path:url(#SVGID_00000044144605603214705040000009602108709200116633_);fill-rule:evenodd;clip-rule:evenodd;fill:#6E62B5;" d="
			M589,424l-8.9,4.8c0,0,19.4,29.5,24.5,129.7c3.3,65.2-2.1,73.2-2.1,73.2l-19.7,5.4l7.4,54.9l-54.4,171l-5.1,82.8l234.7,0.7
			c0,0,33.3-172.3-7.6-304.9l-19.8-7.4c3.4-0.6-19.4-160.2-51.8-201.2l-7-5.1c0,0,51.8,124.8,40.8,204l-89.4,1.2
			C630.7,633.1,616.4,481.7,589,424L589,424z"/>
	</g>
	<polygon class="st22" points="721.2,676 971,676 971,876.3 721.2,876.3 721.2,676 	"/>
	<g>
		<defs>
			<polygon id="SVGID_00000122713642602357592530000003290944938319218065_" points="721.2,676 971,676 971,876.3 721.2,876.3 
				721.2,676 			"/>
		</defs>
		<clipPath id="SVGID_00000039831363572442054690000005679056233865027736_">
			<use xlink:href="#SVGID_00000122713642602357592530000003290944938319218065_"  style="overflow:visible;"/>
		</clipPath>
		
			<polygon style="clip-path:url(#SVGID_00000039831363572442054690000005679056233865027736_);fill-rule:evenodd;clip-rule:evenodd;fill:#B18C75;" points="
			693.8,647.7 998.4,647.7 998.4,704.4 693.8,704.4 693.8,647.7 		"/>
		
			<polygon style="clip-path:url(#SVGID_00000039831363572442054690000005679056233865027736_);fill-rule:evenodd;clip-rule:evenodd;fill:#CAB0A1;" points="
			891.3,647.7 982,647.7 982,727.8 891.3,727.8 891.3,647.7 		"/>
		
			<polygon style="clip-path:url(#SVGID_00000039831363572442054690000005679056233865027736_);fill-rule:evenodd;clip-rule:evenodd;fill:#B18B74;" points="
			1051.4,704.4 1051.4,894.6 891.3,894.6 891.3,704.4 1051.4,704.4 		"/>
		
			<polygon style="clip-path:url(#SVGID_00000039831363572442054690000005679056233865027736_);fill-rule:evenodd;clip-rule:evenodd;fill:#DFD0C7;" points="
			922.3,676 945.8,676 945.8,718.6 922.3,718.6 922.3,676 		"/>
		
			<path style="clip-path:url(#SVGID_00000039831363572442054690000005679056233865027736_);fill:none;stroke:#573A00;stroke-width:1.5504;stroke-linecap:round;stroke-linejoin:round;stroke-miterlimit:10;" d="
			M949.3,823.9h10v17.6h-10V823.9L949.3,823.9z M949.3,848.8h10v17.6h-10V848.8L949.3,848.8z M929,823.9h10v17.6h-10V823.9
			L929,823.9z M929,848.8h10v17.6h-10V848.8L929,848.8z M908.8,823.9h10v17.6h-10V823.9L908.8,823.9z M908.8,848.8h10v17.6h-10
			V848.8L908.8,848.8z"/>
	</g>
	<path class="st28" d="M614.7,419c-0.5,0.1,0.8,0.7,1.2,1c0.9,0.7,1.8,1.3,2.7,1.9c2.9,2,6,3.8,9.1,5.4c6.4,3.2,13,5.5,19.9,6.8
		c2.7,0.5,7.9-0.2,10.3,1.2c0.6,0.3-2.3,3.6-2.5,4c-1.6,2.4-1.9,5.6-2.1,8.6c-0.6,7.5,0.1,16.6-0.4,16.4c-2.5-0.9-10.6-1.4-13-2.7
		c-10.6-5.7-20.2-14.1-25.3-25.8c-1.8-4-4.8-14.2,0.9-16.8"/>
	<path class="st28" d="M655.1,435.5c-0.1-0.5,2.7,0.8,2.9,0.9c2,1.7,3.5,3.8,4.8,6.1c2.1,3.8,3,8.1,3.5,12.3
		c0.1,0.5,0.4,6.8,0.8,6.6c1-0.5,1.6-2.6,2-3.6c1.3-3.7,1.6-7.8,1.3-11.7c-0.3-4.2-1.3-8.5-2.8-12.5c-1.4-3.8-2.9-7.6-5-11
		c-0.8-1.4-1.6-2.9-2.6-4.1c-0.3-0.3-1.2-1-1.2-0.6c-0.1,4.1,1.3,7.3-1.1,11.2c-1.1,1.7-2.3,3.6-3.7,5.1c-0.2,0.2-1.4,1-1.2,1.4"/>
	<path class="st4" d="M654.3,374.9l3.5,37.4c0,0,3.7,16.9-0.5,20.4c-5.8,5-21.1,1.8-42.7-13.2l0-78.3L654.3,374.9L654.3,374.9z"/>
	<g>
		<defs>
			<path id="SVGID_00000183968964252562716870000007311874610765887917_" d="M654.3,374.9l3.5,37.4c0,0,3.7,16.9-0.5,20.4
				c-5.8,5-21.1,1.8-42.7-13.2l0-78.3L654.3,374.9L654.3,374.9z"/>
		</defs>
		<clipPath id="SVGID_00000002373594202985135930000017752042090446750112_">
			<use xlink:href="#SVGID_00000183968964252562716870000007311874610765887917_"  style="overflow:visible;"/>
		</clipPath>
		
			<path style="clip-path:url(#SVGID_00000002373594202985135930000017752042090446750112_);fill-rule:evenodd;clip-rule:evenodd;fill:#FE925E;" d="
			M589.7,383.4c0.2-0.6,22.2,23.5,27.9,26.1c9,4.1,20.3,7.3,32.1,6c2.8-0.3,11.4-1.4,13.2-5.5c1.2-2.6,1.6-17.4,0.5-18.7
			c-4.9-5.8-13.8,1.2-19.4-4c-7.6-7-15.4-13.8-23.6-20.1c-2.7-2-6.9-6.1-11.8-3.7C601.9,366.9,595,378,589.7,383.4"/>
	</g>
	<path class="st30" d="M691.2,282.1c0,0,12,118.7-57.5,118.7c-47.8,0-73.7-86.7-59.9-124.5C587.5,238.6,675.9,221.3,691.2,282.1"/>
	<path class="st31" d="M615.9,310.4c0,0-6.5-6.7-16.6,2.2c-2.8,2.5,2.7,0.1,8.1-0.1C613.4,312.2,619.3,313.8,615.9,310.4"/>
	<path class="st31" d="M646.4,307.6c0,0,5.5-7.5,16.7-0.1c3.1,2-2.6,0.5-8.1,1C649.2,309.1,643.6,311.5,646.4,307.6"/>
	<path class="st12" d="M611.1,324.4c-2.1,0.1-3.7,2-3.5,4.1c0.1,2.1,2,3.7,4.1,3.5c2.1-0.1,3.7-2,3.5-4.1
		C615,325.9,613.2,324.3,611.1,324.4L611.1,324.4z"/>
	<path class="st12" d="M655.6,320.7c2.1-0.1,3.9,1.4,4.1,3.5c0.1,2.1-1.4,3.9-3.5,4.1c-2.1,0.1-3.9-1.4-4.1-3.5
		C652,322.7,653.5,320.9,655.6,320.7L655.6,320.7z"/>
	<path class="st12" d="M617.3,325.1c0,0-6.4-6.4-12.4-0.3c0,0,1.9-6.9,8.9-3.9C617.1,322.3,617.3,325.1,617.3,325.1L617.3,325.1z"/>
	<path class="st12" d="M649.6,322.2c0,0,5.4-7.2,12.2-2c0,0-2.9-6.6-9.4-2.6C649.4,319.5,649.6,322.2,649.6,322.2L649.6,322.2z"/>
	<path class="st32" d="M632.9,327.4c0,0,6.3,22.1,6.2,27c-0.1,3.9-6.7,2.5-6.7,2.5"/>
	<path class="st14" d="M624.1,372.1c0,0,12.8,11.5,22.3-1"/>
	<path class="st30" d="M683.8,330.5c0,0,7.9-23.1,18.1-13c10.2,10.1-1.2,37.9-11.1,37.7C681,355.1,679.1,339.9,683.8,330.5"/>
	<path class="st30" d="M583.5,331.4c0,0-7.8-23.2-18.1-13.1s1,37.9,10.9,37.8C586.2,356,588.2,340.9,583.5,331.4"/>
	<path class="st31" d="M585.9,263.2c0,0,16.4,56-12.3,58.3C573.7,321.5,548.1,287.1,585.9,263.2"/>
	<path class="st31" d="M674,263.2c0,0-11.2,51.9,17.5,54.2C691.5,317.4,710,258.4,674,263.2"/>
	<path class="st4" d="M552,659.5c0,0,205.1,103.7,259.4,99.4l-2.8,23.6c0,0-229.3-21.9-273.7-53.1
		C534.9,729.3,537.1,683.2,552,659.5L552,659.5z"/>
	<path class="st20" d="M548.2,750.1c-29.5-21.6-42.8-253.9,6.7-302.6c46.5-45.8,46.9,181.4,44.1,228.4
		C590.4,695.7,572.3,754.9,548.2,750.1L548.2,750.1z"/>
	<g>
		<defs>
			<path id="SVGID_00000044166336908673239060000016597846671178200481_" d="M548.2,750.1c-29.5-21.6-42.8-253.9,6.7-302.6
				c46.5-45.8,46.9,181.4,44.1,228.4C590.4,695.7,572.3,754.9,548.2,750.1L548.2,750.1z"/>
		</defs>
		<clipPath id="SVGID_00000103265837283767891190000015030572396172499385_">
			<use xlink:href="#SVGID_00000044166336908673239060000016597846671178200481_"  style="overflow:visible;"/>
		</clipPath>
		
			<path style="clip-path:url(#SVGID_00000103265837283767891190000015030572396172499385_);fill-rule:evenodd;clip-rule:evenodd;fill:#DF5255;" d="
			M583.5,650.2c-0.7,1.3,1.6-2.6,2.2-4c1.1-2.5,2.1-5,2.9-7.6c2.7-8.4,4.3-17.3,5.7-26.1c2.7-17.5,3.7-35.2,3.3-52.9
			c-0.1-4.3-3-18.8-1-22.6c0.8-1.5,0.6,3.3,0.8,5c0.5,3.6,0.8,7.1,1,10.7c0.8,10.3,1,20.6,1.2,30.9c0.6,21.7,0.7,43.4-0.7,65.1
			c-0.3,5.2,0,18.4-5.2,21.4c-4.3,2.5-13.6-3.9-17.9-5.3"/>
	</g>
	<path class="st4" d="M788.7,756.9c0,0,48.2-11.2,65.7-2.9c0,0,13,6.8,6,11.9c0,0,5.5,8.7-0.2,12.2c0,0,2.1,9.7-5.2,12.8
		c-7.2,3.1,1.4,10.9-8.8,11.5c0,0-65.2-16.5-71.6-26L788.7,756.9L788.7,756.9z"/>
	<path class="st6" d="M566.5,307.5c6.1,2.4,14.4-0.2,23-3.4c14.6-29.3,59.5-43.5,103.4-36.5c0,0-14.2-56.4-77.7-47.7
		C551.2,228.9,566.5,307.5,566.5,307.5L566.5,307.5z"/>
	<path class="st34" d="M568.7,307.9c0,0,11.2-0.1,18.5-1.4c7.2-1.3,8.2-8.3,24.7-21.8c18.4-15.2,76.4-1.3,80.5,20.5
		c0,0,20.6,1,15-17.5c-5.4-17.8-19.3-35-46.1-37.9c-18.8-2.1-62.4-1.8-79.1,50.5C580.4,305.6,569.3,305.5,568.7,307.9L568.7,307.9z"
		/>
	<path class="st35" d="M606.7,288.6c0,0,13.7-24.6,67.2-20.1c10.3,0.9,39.1,14.6,33.1,28.9c-3.8,9-15,8-15,8
		C692.7,297.8,664.9,265.9,606.7,288.6L606.7,288.6z"/>
	<path class="st36" d="M1107.7,870.7c0,0-51.4,21.9-59.4,39.1c0,0-5.5,13.3,3,12.7c0,0,1.3,10.1,7.8,9.1c0,0,4.5,8.7,12,6.5
		c7.4-2.2,5.8,9.1,13.9,3.2c0,0,39-53.4,37.8-64.7L1107.7,870.7L1107.7,870.7z"/>
	<path class="st37" d="M1192.3,665.9c0,0-63.4,165.6-88,204.3c-1.9,13.3,8.3,19.6,19,18.3c0,0,114.8-136.9,125-186.3
		C1248.3,702.3,1217.5,672.4,1192.3,665.9L1192.3,665.9z"/>
	<path class="st37" d="M1174.2,804.5c29.9-24.6,68.5-213.8,41.1-286.2c-10.5-27.6-26.9-34.3-45.6-32.5
		c-25.9,2.5-54.1,27.4-57.3,92.9c-5.5,112.9,1.9,129.8-4.3,180.3C1113.5,781.7,1147.7,804.8,1174.2,804.5L1174.2,804.5z"/>
	<path class="st38" d="M1243.8,862c0,0,78.1-315.6,34.7-377.9c-43.4-62.2-139.4-1-137.5,120.7c2,121.7,18.9,158.5,15.8,213.1
		C1164.2,842,1202.9,888.3,1243.8,862L1243.8,862z"/>
	<g>
		<defs>
			<path id="SVGID_00000106828600975291262280000003619566311537849242_" d="M1243.8,862c0,0,78.1-315.6,34.7-377.9
				c-43.4-62.2-139.4-1-137.5,120.7c2,121.7,18.9,158.5,15.8,213.1C1164.2,842,1202.9,888.3,1243.8,862L1243.8,862z"/>
		</defs>
		<clipPath id="SVGID_00000080894418272104230240000017082915779737533598_">
			<use xlink:href="#SVGID_00000106828600975291262280000003619566311537849242_"  style="overflow:visible;"/>
		</clipPath>
		
			<path style="clip-path:url(#SVGID_00000080894418272104230240000017082915779737533598_);fill-rule:evenodd;clip-rule:evenodd;fill:#F4AF06;" d="
			M1135.3,556.6c-2.6,0.4,1.4,5,1.9,7.6c0.8,4.6,1.5,9.3,2.1,14c2.1,14.9,3.8,29.7,5.3,44.7c4.7,46.7,11.1,92.4,23.4,137.8
			c5.7,20.9,10.6,42.8,21,62.1c9.1,17,23.9,31.2,41.5,39.2c7,3.2,14.3,5.4,21.7,7.2c0.5,0.1,9.8,2.3,9.4,2.8
			c-2.4,3.5-22,0.6-25.3,0.4c-26.3-1.4-54.3-5.5-76.1-21.5c-46.6-34.4-52.3-104.9-50.8-157.9c0.6-20.7-0.9-46.3,15.5-60.8"/>
	</g>
	<path class="st40" d="M1103.2,947h238.3c7.9-38.4-2.8-96.3,7.9-168.8c26.4-178.4,27.5-232.2-11.6-297.7c0,0-72.8-85.5-147.4-46.4
		c-74.6,39.1-83.9,112.9-86.3,202.1C1098.5,840.4,1097,884.4,1103.2,947L1103.2,947z"/>
	<path class="st12" d="M1200.5,443.8c-5.6,3.8-11.1,7.8-10.1,18.5l14.6-0.5L1200.5,443.8L1200.5,443.8z"/>
	<path class="st12" d="M1174.8,787.3c-3-15.9,11.1-228.6,24-307.6c1.2-7.3,5.1-13.1,6.2-17.9l-14.6,0.5c-0.9,2.6,0.9,7.5-0.7,14.8
		c-13.5,62.5-51,277.1-49.7,306.8c0,0,10.4,35.9,13.8,54.9C1153.8,838.8,1162.2,807.9,1174.8,787.3L1174.8,787.3z"/>
	<path class="st41" d="M1238.2,430.5c0.5,0.1-0.7,0.7-1.1,1c-0.8,0.6-1.6,1.2-2.5,1.8c-2.7,1.9-5.6,3.6-8.5,5.1
		c-6,3.1-12.2,5.2-18.7,6.6c-2.5,0.5-7.4-0.2-9.7,1.2c-0.5,0.3,2.2,3.4,2.4,3.7c1.5,2.3,1.8,5.3,2,8.1c0.6,7.1,0,15.6,0.5,15.4
		c2.4-0.9,10-1.4,12.2-2.7c9.9-5.4,18.9-13.4,23.7-24.5c1.7-3.8,4.4-13.4-1-15.9"/>
	<path class="st41" d="M1200.3,446.3c0.1-0.5-2.6,0.8-2.7,0.9c-1.8,1.6-3.3,3.6-4.5,5.8c-1.9,3.6-2.8,7.6-3.2,11.6
		c-0.1,0.5-0.3,6.4-0.8,6.2c-1-0.5-1.5-2.5-1.9-3.4c-1.3-3.5-1.6-7.3-1.3-11c0.3-4,1.2-8,2.5-11.8c1.3-3.6,2.7-7.1,4.6-10.4
		c0.8-1.3,1.4-2.7,2.4-3.9c0.3-0.3,1.1-1,1.1-0.6c0.1,3.8-1.2,6.9,1.1,10.5c1,1.6,2.2,3.4,3.5,4.8c0.2,0.2,1.3,1,1.2,1.3"/>
	<path class="st42" d="M1195.4,401.8l0,35.7c0,0-2.3,6.1,6,8.1c9.9,2.3,33.1-4.3,36.1-13.5l-1.8-69.4L1195.4,401.8L1195.4,401.8z"/>
	<g>
		<defs>
			<path id="SVGID_00000093173142403108418910000013277885010353759925_" d="M1195.4,401.8l0,35.7c0,0-2.3,6.1,6,8.1
				c9.9,2.3,33.1-4.3,36.1-13.5l-1.8-69.4L1195.4,401.8L1195.4,401.8z"/>
		</defs>
		<clipPath id="SVGID_00000176756458107956022700000002515494973670369435_">
			<use xlink:href="#SVGID_00000093173142403108418910000013277885010353759925_"  style="overflow:visible;"/>
		</clipPath>
		
			<path style="clip-path:url(#SVGID_00000176756458107956022700000002515494973670369435_);fill-rule:evenodd;clip-rule:evenodd;fill:#E5783F;" d="
			M1253.5,413.9c0.2-0.9-1.2,1.3-1.9,1.7c-1.6,1-3.3,1.8-5,2.5c-5,2.1-8,4.4-12.9,6.7c-16.3,7.9-31,6.8-47,2.7
			c-3.8-1-20.4-6.6-20.6-12.3c-0.1-3.7,5.4-6.4,7.8-8c10.5-6.7,21.5-12.6,32.5-18.3c14.9-7.8,30.2-15.2,45.7-21.9
			c5-2.2,13.5-6.8,19.1-2.6C1278.7,370.1,1249,405.6,1253.5,413.9"/>
	</g>
	<path class="st44" d="M1287.3,298.9c-1.5-14.1-7.3-33.7-14.7-42.7c-2.3-2.8-3.8-6.2-6.1-8.8c-7-8-18.3-13.8-28-17.8
		c-10.8-4.5-22.2-6.8-33.9-7.5c-11.2-0.7-35.7,11.3-35.8,11.4c-0.7,0.9-18.7,17-18.9,19.1c-0.1,1.7-3.1,15.7-2.7,19.8
		c0.4,3.9-1.6,8.1-2,11.9c-0.7,7.9-0.1,15.8,0.8,23.6c0.3,2.3,0.6,10.6,3.2,12.1c8.2,4.6,21.7,4.2,30.6,4.8
		c25.1,1.9,49.8,1.4,74.6-2c8.1-1.1,21.9,1.6,29.7-1.2C1287.3,320.5,1288.4,309.3,1287.3,298.9L1287.3,298.9z"/>
	<path class="st45" d="M1156.1,244.9c-1.1-5.8,4.7-4.5,7.2-8.1c1.7-2.4,2.8-4.6,5.6-5.7c1.9-0.7,4.7-0.3,6.3-1.5
		c2.4-1.8,3.5-5.1,6.2-7c6.5-4.6,10.4-2.8,17.5-3.3c3.2-0.2,6.2-1.2,9.4-1.1c4.2,0.1,8,3.3,12.1,3.2c5.9,0,10.6-3.5,16.9-1.5
		c5.9,1.9,6.8,7.3,11.1,10.6c3.6,2.7,8.9,2.8,12.7,5.3c2,1.3,1.5,4.4,2.9,5.3c1.9,1.3,4.5,0.4,6.4,2.3c2.5,2.5,0.6,7.4,2.6,9.4
		c1.6,1.6,5.8-1.2,8.4,3.8c2.5,4.9-2.8,9.7-1.3,13.8c0.9,2.4,5.6,3.2,6.8,6.2c1.5,3.7-1.1,7-0.3,10.5c0.6,2.5,3.4,3.5,4.1,6
		c0.4,1.6-0.8,2.8-0.6,4.3c0.3,2.3,2.8,3.7,3,6.2c0.1,2.6-2.1,3.1-2.8,5.1c-0.6,1.7,0.2,4.1-0.2,6c-0.9,4.3-3.9,5.8-7,8.1
		l-67.5-41.1l-67.7,40.4c-2.8-2.4-5.6-4.1-6.3-8.4c-0.3-1.9,0.5-4.3,0-6c-0.6-2-2.7-2.7-2.5-5.2c0.2-2.5,2.6-3.8,3-6.1
		c0.2-1.5-0.9-2.8-0.5-4.4c0.7-2.4,2.4-4.1,3-6.6c0.9-3.5-2.5-8.1-0.9-11.8c1.3-3,2.3-5.4,3.2-7.8c1.6-4.1-1.1-8,1.5-12.8
		c2.6-4.9,4,1.2,4.6-6.4C1153.3,245.6,1154.5,245.2,1156.1,244.9L1156.1,244.9z"/>
	<path class="st42" d="M1153.8,315.4c0,0,0.8,102,60.9,102c55.3,0,64.1-94.8,64.1-94.8c8.5-24.3-3-41-19.7-73.6l-76.5-2
		C1154.6,267.4,1144.3,278.1,1153.8,315.4L1153.8,315.4z"/>
	<path class="st46" d="M1194.1,311.4c0,0-8-7-18.6,4.1c-2.9,3.1,3.4-0.8,9.5-1.6C1191.6,313,1198.2,314.9,1194.1,311.4"/>
	<path class="st46" d="M1233.6,312.1c0,0,8.2-6.7,18.5,4.7c2.8,3.2-3.3-0.9-9.5-1.9C1236,313.8,1229.3,315.5,1233.6,312.1"/>
	<path class="st47" d="M1186.9,329.1c2.6-0.4,5,1.3,5.5,3.9c0.4,2.6-1.3,5-3.9,5.5c-2.6,0.4-5-1.3-5.5-3.9
		C1182.5,332,1184.3,329.5,1186.9,329.1L1186.9,329.1z"/>
	<path class="st47" d="M1239.8,330.1c2.5-0.7,5.1,0.8,5.8,3.3c0.7,2.5-0.8,5.1-3.3,5.8c-2.5,0.7-5.1-0.8-5.8-3.3
		C1235.8,333.4,1237.3,330.8,1239.8,330.1L1239.8,330.1z"/>
	<path class="st47" d="M1248.2,330.9c0,0-7.6-8.3-15.4-1.1c0,0,2.8-8.6,11.4-4.3C1248.1,327.5,1248.2,330.9,1248.2,330.9
		L1248.2,330.9z"/>
	<path class="st47" d="M1195.2,330.9c0,0-6.7-9.1-15.2-2.7c0,0,3.7-8.2,11.7-3.1C1195.5,327.5,1195.2,330.9,1195.2,330.9
		L1195.2,330.9z"/>
	<path class="st48" d="M1215.4,333.5c0,0-9.7,20.8-9.1,24.9c0.6,4.9,10.1,3.3,10.1,3.3"/>
	<path class="st49" d="M1198.4,385.5c10.1,10.6,19.7,9.7,28.8,0.5"/>
	<path class="st44" d="M1152.2,320.2c-1.2,1.7-2.3,3.1-2.8,3c-0.5-0.1-0.9-3.1-1-3.5c-1-4.1-1.3-8.4-1.5-12.6
		c-0.7-18,3.5-37.3,11.1-53.6c2.3-5,5.5-9.6,9.4-13.6c30.4-31.3,81.7-9.1,103.8,21.1c9.6,13.1,21.8,41.5,13.1,57.6l-2.8,1.1
		c0,1.1,0.2,4.5-0.7,5c-0.3,0.2-1.2-2.5-1.5-2.7c-0.7-0.7-1.7-0.9-2.3-1.8c-0.9-1.3-0.7-2.9-1.4-4.2c-0.6-1.1-1.6-1.7-2.1-3
		c-0.5-1.4-0.1-2.9-0.5-4.2c-0.8-2.9-2.6-5.6-3.7-8.3c-0.4-0.9-0.1-2-0.5-2.9c-0.5-1.2-2.5-1.5-3.2-2.8c-0.9-1.7,0.5-3.4,0.1-5.2
		c-0.3-1.6-2-2.4-2.3-3.9c-0.2-0.9,0.4-1.7,0.4-2.6c-0.1-1.3-1.2-2.2-1.4-3.5c-0.4-2,0.2-4-0.6-5.6c-1.3,1.7-5.1,0.7-6.7,1.9
		c-1.3,1-2.3,2.6-3.8,3.1c-1.7,0.6-3.4,0.3-5.2,0.3c-0.2,0.1-0.4,0.1-0.6,0.2c-3.4,1.1-6.8,1.8-10.3,2.4c-0.7,1-1.3,2.1-2.3,2.6
		c-2.1,1-6.3,0.4-8.7,0.3c-2,0-3.9-1.2-5.9-1.1c-1.7,0.1-2.5,1.5-4.4,1c-1.1-0.3-2.2-0.9-3.2-1.5l-0.2,0c0,0,0,0,0,0
		c-0.8,1-2.7,0.7-3.8,0.6c-2.4-0.2-4.2,1.7-6.4,1.3c-2.5-0.5-5.5-0.3-7.9-1.2c-0.8-0.3-1.5-1-2.3-1.6c-2.3-0.2-4.6-0.6-6.9-1
		c-4.6-0.1-9.5-0.1-13.6-1.9c-0.5-0.2-1-0.6-1.5-1.1c-0.3,2,0.5,3.9,0.4,6c0,1.3-1.2,1.9-1.3,3.1c-0.1,1,0.9,1.7,0.5,2.8
		c-0.3,0.7-1.3,1.1-1.4,1.8c-0.3,1.4,0.8,2.6,0.4,4.1c-0.5,2.1-2,2.9-3,4.6c-0.2,0.4,0.2,1.3-0.1,1.6c-0.4,0.4-1-0.6-1.3,0.6
		c-0.4,1.6,0.1,3.3-0.4,4.9c-0.7,2.3-2.7,4.6-3.6,7c-0.4,1,1,2.1,0.3,3.1c-0.8,1.2-2.4,0.5-3.5,1.1c-0.7,0.4-0.6,1.8-1.3,1.9
		C1153.1,320.9,1152.6,320.6,1152.2,320.2L1152.2,320.2z M1167.6,278c0,0-0.1-0.1-0.1-0.1c0,0.1-0.1,0.2-0.1,0.2L1167.6,278
		L1167.6,278z"/>
	<path class="st42" d="M1158.9,356.6c0.1-1.5,3.5-10,2.5-18.3c-1.2-10-7-20-7.5-20.4c-0.6-0.4-1.2-0.8-1.3-0.8
		c-0.8-0.3-1.5-0.6-2.4-0.7c-2.3-0.5-4.6,0.1-6.5,1.4c-5.5,3.6-7.3,11.6-7.3,17.7c0,8.3,2.7,17.8,8.9,23.7
		C1150,363.8,1157.2,363.3,1158.9,356.6L1158.9,356.6z"/>
	<path class="st42" d="M1273.2,358.6c-0.1-1.5-3.2-10.1-1.8-18.4c1.6-10,7.7-19.7,8.2-20.1c0.6-0.4,1.2-0.7,1.3-0.8
		c0.8-0.3,1.6-0.5,2.4-0.6c2.3-0.4,4.6,0.3,6.5,1.6c5.4,3.8,6.9,11.9,6.7,18c-0.3,8.3-3.4,17.7-9.7,23.4
		C1281.9,366.2,1274.6,365.3,1273.2,358.6L1273.2,358.6z"/>
	<path class="st12" d="M1184.9,305.9c12.9,0.2,23.1,10.9,22.9,23.7c-0.2,12.9-10.9,23.1-23.7,22.9c-12.9-0.2-23.1-10.9-22.9-23.7
		C1161.4,315.9,1172,305.7,1184.9,305.9L1184.9,305.9z M1184.9,308c11.7,0.2,21,9.9,20.8,21.6c-0.2,11.7-9.9,21-21.6,20.8
		c-11.7-0.2-21-9.9-20.8-21.6C1163.5,317.1,1173.2,307.8,1184.9,308L1184.9,308z"/>
	<path class="st12" d="M1247.5,307.2c12.9,0.2,23.1,10.9,22.9,23.7c-0.2,12.9-10.9,23.1-23.7,22.9c-12.9-0.2-23.1-10.9-22.9-23.7
		C1223.9,317.3,1234.6,307,1247.5,307.2L1247.5,307.2z M1247.4,309.3c11.7,0.2,21,9.9,20.8,21.6c-0.2,11.7-9.9,21-21.6,20.8
		c-11.7-0.2-21-9.9-20.8-21.6C1226,318.5,1235.7,309.1,1247.4,309.3L1247.4,309.3z"/>
	<path class="st50" d="M1224.9,330.2c0,0-8.6-9.2-17.8-0.8"/>
	<polygon class="st12" points="1148.5,314.7 1147.4,316 1162,328.2 1163.1,326.9 1148.5,314.7 	"/>
	<path class="st51" d="M1113.7,921c0.2-0.4,0.1,0.9,0.2,1.3c0.2,0.9,0.5,1.7,0.8,2.6c1.1,2.4,2.6,4.6,4.5,6.5c2.5,2.4,6,4.1,7.3,7.5
		c0.7,1.8,0.6,4-0.3,5.8c-0.1,0.2-1.4,2.2-1.4,2.3c0.1,0.2,3.4-1.3,3.6-1.4c0.7-0.3,1.5-0.7,2.2-1c1.1-0.5,2.4-1,3.4-1.7
		c0.6-0.5-1.4-3.8-1.6-4.2c-2.5-4.5-6.6-6.7-9.9-10.4c-2.4-2.6-3.3-6.2-4-9.6c-0.2-0.7-0.4-3.4-1.6-3.4c-0.8,0-1.6,1.3-2.1,1.8"/>
	<path class="st52" d="M1164.5,727.7c-1.7-4.9-7-7.5-11.9-5.9c-26.8,9.1-104.9,35.6-104.9,35.6l58.1,171.1c0,0,78.1-26.5,104.9-35.6
		c4.9-1.7,7.5-7,5.9-11.9C1206.6,851.6,1174.5,757.2,1164.5,727.7L1164.5,727.7z"/>
	<g>
		<defs>
			<path id="SVGID_00000162318466258049762870000014897785331078207894_" d="M1164.5,727.7c-1.7-4.9-7-7.5-11.9-5.9
				c-26.8,9.1-104.9,35.6-104.9,35.6l58.1,171.1c0,0,78.1-26.5,104.9-35.6c4.9-1.7,7.5-7,5.9-11.9
				C1206.6,851.6,1174.5,757.2,1164.5,727.7L1164.5,727.7z"/>
		</defs>
		<clipPath id="SVGID_00000068673096378516659300000007618374476733925816_">
			<use xlink:href="#SVGID_00000162318466258049762870000014897785331078207894_"  style="overflow:visible;"/>
		</clipPath>
		
			<path style="clip-path:url(#SVGID_00000068673096378516659300000007618374476733925816_);fill-rule:evenodd;clip-rule:evenodd;fill:#B1ADD8;" d="
			M1156.1,719.8c0.5-0.2,3.8,6.1,4,6.4c4.7,8.6,8.5,17.8,11.9,27c12.4,33.6,25.6,76.2,2.1,108.1c-17.5,23.8-48,33.7-74.1,44.9
			c-10.9,4.7-22.3,9.3-32.1,16c-2.5,1.7-8.9,6.4-3.2,8.6c6.2,2.4,14.3,1.5,20.7,1.2c15.8-0.8,31.6-3,47.3-5.3
			c22-3.3,43.9-6.9,65.6-11.9c8-1.8,21-3.1,27.1-9.3c3.8-3.9,2.3-10.8,1.5-15.5c-2.3-13.8-5.8-27.4-9.2-41
			c-8.3-33.4-18-66.5-31.8-98.2c-7-16-17.4-30.8-23.5-47.1"/>
	</g>
	<path class="st54" d="M1146.8,753.3c-0.6-1.8-1.9-3.2-3.6-4.1c-1.7-0.8-3.6-1-5.4-0.4c-12.4,4.2-38.8,13.2-51.2,17.4
		c-1.8,0.6-3.2,1.9-4.1,3.6c-0.8,1.7-1,3.6-0.4,5.4c1.7,5,4,11.9,5.7,16.9c0.6,1.8,1.9,3.2,3.6,4.1c1.7,0.8,3.6,1,5.4,0.4
		c12.4-4.2,38.8-13.2,51.2-17.4c1.8-0.6,3.2-1.9,4.1-3.6c0.8-1.7,1-3.6,0.4-5.4C1150.9,765.2,1148.5,758.3,1146.8,753.3
		L1146.8,753.3z"/>
	<polygon class="st55" points="1097.7,786.9 1104.1,784.6 1105.3,787.8 1094.8,791.6 1088.6,774.2 1092.6,772.7 1097.7,786.9 	"/>
	<path class="st55" d="M1123.4,781.3l-3.1,1.1c-0.4,0.1-0.7,0.1-1,0.1c-0.3-0.1-0.5-0.2-0.7-0.5l-2.1-2.7l-6.6,2.4l0.1,3.4
		c0,0.3-0.1,0.5-0.2,0.8c-0.2,0.3-0.4,0.5-0.8,0.6l-3.2,1.1l0.5-19.8l4.1-1.5L1123.4,781.3L1123.4,781.3z M1109.8,778.7l4.8-1.7
		l-3.3-4.2c-0.2-0.3-0.5-0.6-0.7-0.9c-0.3-0.4-0.6-0.8-0.9-1.2c0,0.5,0.1,1,0.1,1.5c0,0.5,0,0.9,0,1.2L1109.8,778.7L1109.8,778.7z"
		/>
	<path class="st55" d="M1115.8,764.4l3.4-1.2c0.4-0.1,0.7-0.2,1-0.1c0.3,0.1,0.5,0.2,0.7,0.5l5.6,8.2c0.2,0.3,0.4,0.6,0.6,0.9
		c0.2,0.3,0.4,0.6,0.6,1c-0.1-0.4-0.1-0.8-0.1-1.1c0-0.4,0-0.7-0.1-1l-0.4-10.1c0-0.2,0.1-0.5,0.2-0.8c0.2-0.3,0.4-0.5,0.8-0.6
		l1.2-0.4c0.4-0.1,0.7-0.2,0.9-0.1c0.3,0.1,0.5,0.2,0.7,0.5l6,8.1c0.2,0.2,0.4,0.5,0.6,0.8c0.2,0.3,0.4,0.6,0.6,0.9
		c-0.1-0.4-0.1-0.7-0.2-1.1c0-0.3-0.1-0.7-0.1-1l-0.9-9.9c0-0.3,0.1-0.5,0.2-0.8c0.2-0.3,0.4-0.5,0.8-0.6l3.2-1.1l0.9,19.3l-3.7,1.3
		l-7.1-9.6c-0.1-0.1-0.2-0.3-0.4-0.5c-0.1-0.2-0.3-0.4-0.4-0.6c0,0.2,0,0.5,0.1,0.7c0,0.2,0,0.4,0,0.6l0.5,12l-3.7,1.3L1115.8,764.4
		L1115.8,764.4z"/>
	<path class="st56" d="M1054.5,756c-0.6-1.8-2.6-2.7-4.3-2.1c0,0,0,0,0,0c-1.8,0.6-2.8,2.6-2.1,4.3c7.4,21.9,50.2,147.8,57.6,169.7
		c0.6,1.8,2.6,2.7,4.3,2.1c0,0,0,0,0,0c1.8-0.6,2.8-2.6,2.1-4.3C1104.7,903.8,1061.9,777.9,1054.5,756L1054.5,756z"/>
	<polygon class="st12" points="1283,317.3 1284.1,318.7 1270,329.5 1269,328.2 1283,317.3 	"/>
	<path class="st42" d="M1155.5,830.2c0,0-63.9-11.5-82.7,0.2c0,0-13.9,9.4-5.2,14.3c0,0-5.1,10.6,1.8,13.9c0,0-1.1,11.3,7.5,13.9
		c8.6,2.6-0.1,12.5,11.5,12c0,0,72-27.1,78.1-38.8L1155.5,830.2L1155.5,830.2z"/>
	<path class="st37" d="M1368.5,685c0,0-167.4,120.6-216.1,142.6c-10.3,11.7-4.4,24.4,6.8,30c0,0,199.1-59.9,240.5-101.4
		C1399.8,756.1,1388.9,707.5,1368.5,685L1368.5,685z"/>
	<path class="st37" d="M1399.7,759.1c19-33.7-13.1-224.1-64.8-281.7c-19.7-22-37.4-22.3-54.3-13.9c-23.3,11.6-40.5,45.1-19.9,107.3
		c35.5,107.3,48.5,120.5,61,169.7C1334.8,759.8,1375,769,1399.7,759.1L1399.7,759.1z"/>
	<path class="st57" d="M604.9,712.2c5.2-13.4,5.6-43.7,1.5-48.7c-38.8-47-127.9-231.3-188.1-156.2c-12.3,15.4-41.9,88.1-5.7,118
		c0,0,104.7,95,175.6,113.5C593.7,740.4,597.8,730.3,604.9,712.2L604.9,712.2z"/>
	<path class="st58" d="M495.7,942.7c15.7-1.2,47.8-19.4,48.1-26.5c2.9-66.8-14.3-407.1-106.7-435.4c-20.9-6.4-62.2,64.7-30.1,235.6
		c0,0,5.9,148.8,50.1,215.9C460.5,937.3,479.2,943.9,495.7,942.7L495.7,942.7z"/>
	<path class="st57" d="M359.6,951.8c10.4-41.7,23.6-88.3,12.2-128.6c-17.5-61.8-35.5-122.5-35.5-122.5S268.3,533,380.5,480.2
		c0,0,64-9.3,83.4,13.6c39.3,46.3,191.6,219,118.1,288.3c0,0,0.7,49.6,4.3,98.8c1.9,26.3,4.6,52.4,8.4,70.9H359.6L359.6,951.8z"/>
	<g>
		<defs>
			<path id="SVGID_00000076570539483534913680000002194111728888489139_" d="M359.6,951.8c10.4-41.7,23.6-88.3,12.2-128.6
				c-17.5-61.8-35.5-122.5-35.5-122.5S268.3,533,380.5,480.2c0,0,64-9.3,83.4,13.6c39.3,46.3,191.6,219,118.1,288.3
				c0,0,0.7,49.6,4.3,98.8c1.9,26.3,4.6,52.4,8.4,70.9H359.6L359.6,951.8z"/>
		</defs>
		<clipPath id="SVGID_00000121261222625272678810000017872874907611575704_">
			<use xlink:href="#SVGID_00000076570539483534913680000002194111728888489139_"  style="overflow:visible;"/>
		</clipPath>
		
			<path style="clip-path:url(#SVGID_00000121261222625272678810000017872874907611575704_);fill-rule:evenodd;clip-rule:evenodd;fill:#D3D3D3;" d="
			M577,735c1.5,1.1-41.6,17.9-42.6,18.3c-9.4,3.6-18.9,6.9-28.3,10.5c-1.7,0.6-3.3,1.3-5,1.9c-36.5,14.1-104.1,30.7-138.5,48.1
			c-27.5,13.9-17.9-33.8,9.4-65.9C393.3,722.9,538.5,735.6,577,735L577,735z"/>
	</g>
	<path class="st60" d="M534,951.8c0,0,19.8-119.3,8.2-227.3c-2.9-27.2-10.8-52.4-20.9-73.2l1.5-0.9c11.2,20.5,20,42,23.4,73.3
		c5.1,46,6.9,111.3-3.5,227.9L534,951.8L534,951.8z"/>
	<path class="st61" d="M385.7,864.9c9.1,4.5,32.1,5.3,71.9,5.5c0,0,1.9,51-23.4,58.4c-22.8,6.7-26.3,3.3-37.3,0
		c2.7,2.6,6.1,4.4,10.2,4.9c65.5,8.6,57.1-69.9,57.1-69.9s-34.9,7.2-78.3,0.4C385.8,864.2,385.8,864.4,385.7,864.9L385.7,864.9z"/>
	<path class="st61" d="M585.4,867.4c0,0-0.1,0-0.1,0c-4.4,1-9.6,1.8-15.9,2.8c0,0-3.7,50.8,6.7,56.7c9.3,5.3,9.5,2.7,14.7-0.2
		c-1,2-2.4,2.6-3.9,3.2c-28.4,12-19.8-66-19.8-66s7.3,2.6,18.2,0.8c0,0,0,0,0.1,0C585.2,865.5,585.3,866.5,585.4,867.4L585.4,867.4z
		"/>
	<path class="st61" d="M547.2,691.5c0,0,9.2-3.7,10.8-21.9c1-11.1-19.6-58.6-19.6-58.6s16.6,32.6,24.6,53.9
		c7.9,21.3,8.6,29.5,8.6,29.5L547.2,691.5L547.2,691.5z"/>
	<path class="st62" d="M612,670c34.7,1.5,38.9,28.6,34.3,45.7c-5.4,20.2-24.7,30.8-43.3,31.9c-12.6,0.7-121.6-21.1-207.2-25.9
		c-0.2-6.6-14.7-15-4.7-21.7C391.1,699.9,601.9,669.5,612,670L612,670z"/>
	<path class="st63" d="M612,670c34.7,1.5,38.9,28.6,34.3,45.7c-5.4,20.2-24.7,30.8-43.3,31.9c-7.6,0.4-50-7.3-101.2-14.6
		c-34-4.8-15.8-17.8-50-19.7c-1.3-14.7-19.7-21.4-9.8-28.1C442,685.1,601.9,669.5,612,670L612,670z"/>
	<g>
		<defs>
			<path id="SVGID_00000113333226578618411740000005290915919144518569_" d="M612,670c34.7,1.5,38.9,28.6,34.3,45.7
				c-5.4,20.2-24.7,30.8-43.3,31.9c-7.6,0.4-50-7.3-101.2-14.6c-34-4.8-15.8-17.8-50-19.7c-1.3-14.7-19.7-21.4-9.8-28.1
				C442,685.1,601.9,669.5,612,670L612,670z"/>
		</defs>
		<clipPath id="SVGID_00000048474904305165368550000002410193513511145368_">
			<use xlink:href="#SVGID_00000113333226578618411740000005290915919144518569_"  style="overflow:visible;"/>
		</clipPath>
		
			<path style="clip-path:url(#SVGID_00000048474904305165368550000002410193513511145368_);fill-rule:evenodd;clip-rule:evenodd;fill:#D3D3D3;" d="
			M561.3,742.1c5.1-1.9,10.1-5.8,14.9-8.5c12.8-7.1,26.1-15,40-19.6c6.9-2.3,13.9-1.3,20.9,0.3c1.3,0.3,6.4,2.3,7.3,0.3
			c1.8-4.5-3.6-5.8-6.8-6.9c-8.1-2.9-16.6-5.1-25-6.6c-29.7-5.2-51,22.2-74.2,36.5"/>
	</g>
	<path class="st4" d="M597.3,677.3c0,0,47.3-19.5,66.4-11c0,0,20.5,14.7,7.1,12.8c0,0,6.4,9.4,0.5,13.3c0,0,2.8,10.6-4.8,14.1
		c-7.6,3.6,2.1,11.8-8.7,12.8c0,0-70.7-16.3-78.2-26.6L597.3,677.3L597.3,677.3z"/>
	<path class="st57" d="M345.2,721.1c-56.5,12.2-10.4,85.4-7.7,84.5c77.8-25.8,181.5-36.9,275.1-95.5c-2.3-8-1.8-34.8-16.4-39.1
		C596.2,671.1,357.8,718.4,345.2,721.1L345.2,721.1z"/>
	<path class="st57" d="M337.6,805.7c-7.7-46.4,35.8-91.1,51.9-92.5c10.7-22.8,11.8-16.1,28.8-84.3c21.2-84.8,9.1-116.5-31.5-128.2
		c-20.8-5.9-55-11.3-73.2,61.1c0,0-30.3,122.7-12.5,201.1C305.5,781.8,321.6,801.3,337.6,805.7L337.6,805.7z"/>
	<path class="st65" d="M401.3,219.1c17.6,0,31.8,13,31.8,29c0,16-14.3,29-31.8,29c-17.6,0-31.8-13-31.8-29
		C369.5,232.1,383.7,219.1,401.3,219.1L401.3,219.1z"/>
	<path class="st11" d="M411.8,251.1c-6.6-0.5-21.5,0.5-22.1,0.6c-0.5,0.1-1.1,0.2-1.6,0.4c-0.5,0.1-1.1,0.3-1.6,0.4
		c-18.4,4.5-35.8,13.5-47.2,29c-28.7,39.6-25.1,80.6-12.8,125c24.3,87.6,119.9,58.6,141.1,21.7c16.4-28.4,23.6-35.8,22.9-62.4
		C489.3,321.3,479.4,256.1,411.8,251.1L411.8,251.1z"/>
	<path class="st4" d="M415.1,416.6l15.4,56.6c37.7,47.1,55.1,95.7,53.5,116.1c-13.3-5.9-68.5-60.7-95.7-108.9l-11-95.8L415.1,416.6
		L415.1,416.6z"/>
	<g>
		<defs>
			<path id="SVGID_00000011740513961374913000000003765450383728873860_" d="M415.1,416.6l15.4,56.6c37.7,47.1,55.1,95.7,53.5,116.1
				c-13.3-5.9-68.5-60.7-95.7-108.9l-11-95.8L415.1,416.6L415.1,416.6z"/>
		</defs>
		<clipPath id="SVGID_00000182523409381772542400000016356937835218788271_">
			<use xlink:href="#SVGID_00000011740513961374913000000003765450383728873860_"  style="overflow:visible;"/>
		</clipPath>
		
			<path style="clip-path:url(#SVGID_00000182523409381772542400000016356937835218788271_);fill-rule:evenodd;clip-rule:evenodd;fill:#FE8B53;" d="
			M378.3,453.4c12,27.2,70.8,16.2,52.2-2.1c0,0-21.7-16.2-29.6-19.9c-3.5-1.7-7.6-3.3-11.7-2.2C383.8,430.6,382.8,450,378.3,453.4
			L378.3,453.4z"/>
	</g>
	<path class="st60" d="M412.3,510.3c2,2.5,71.7,79.1,71.7,79.1s-25-83.4-24.3-82.5c9.3,12.9,17.7,27.1,25.2,40.9
		c5.5,10,22.1,45.2,26,55.9c4.5,12.2,8,23.8,9.7,36.6c0.2,1.7,2.9,9.1,1.4,10.8c-0.4,0.4-2.4-1.6-2.6-1.8
		c-2.5-2.2-18.6-19.2-21.3-21.3c-6.8-5.5-68-65.7-79.1-92.9c-2.4-5.9-3.9-11.9-5.3-18.1C413.3,515,412.1,512.3,412.3,510.3"/>
	<path class="st12" d="M367.2,351.4c0.2-0.1,0.5-0.3,0.7-0.4c0.5-0.3,1-0.5,1.5-0.7c1.6-0.6,3.3-1.1,5-1.1c3.3,0,6.2,1.7,9.5,2.1
		c1.3,0.2,3.1-0.1,3.1-2c-0.1-2.3-2.3-3.7-3.9-4.6c-4-2.2-8.8-3-13.2-1.3C364.8,345.5,363.3,353.4,367.2,351.4L367.2,351.4z"/>
	<path class="st4" d="M343.6,358c0,0,0.2,95.1,61.5,97.7c61.3,2.7,61-92.8,61-92.8l-19.7-85.2l-70.1-2L343.6,358L343.6,358z"/>
	<path class="st12" d="M366.8,357.6c0.2-0.1,0.4-0.3,0.6-0.4c0.4-0.3,0.9-0.5,1.4-0.7c1.5-0.7,3.1-1.2,4.7-1.3c3.1-0.2,6,1.3,9,1.6
		c1.2,0.1,3-0.2,2.8-2c-0.2-2.2-2.4-3.4-3.9-4.1c-3.8-1.9-8.4-2.4-12.5-0.6C364.3,352.2,363.2,359.7,366.8,357.6L366.8,357.6z"/>
	<path class="st67" d="M384.2,354.7c0,0-7.7-5.9-16.8,4.8c-2.5,3,3-0.9,8.6-2C382,356.3,388.1,357.7,384.2,354.7"/>
	<path class="st46" d="M420.4,352.9c0,0,7.1-6.6,17.2,3.2c2.8,2.7-3.1-0.7-8.8-1.2C422.7,354.3,416.7,356.3,420.4,352.9"/>
	<path class="st47" d="M379,369.7c2-0.4,4,0.9,4.4,2.9c0.4,2-0.9,4-2.9,4.4c-2,0.4-4-0.9-4.4-2.9C375.7,372.1,377,370.1,379,369.7
		L379,369.7z"/>
	<path class="st47" d="M427.8,368.5c1.9-0.6,3.9,0.4,4.5,2.3c0.6,1.9-0.4,3.9-2.3,4.5c-1.9,0.6-3.9-0.4-4.5-2.3
		C424.8,371.2,425.9,369.1,427.8,368.5L427.8,368.5z"/>
	<path class="st47" d="M437,369.8c0,0-7.3-7.4-14.2-0.4c0,0,2.2-8,10.3-4.4C436.8,366.7,437,369.8,437,369.8L437,369.8z"/>
	<path class="st47" d="M385.2,371.8c0,0-6.5-8.1-14.1-1.9c0,0,3.1-7.7,10.7-3.3C385.3,368.6,385.2,371.8,385.2,371.8L385.2,371.8z"
		/>
	<path class="st68" d="M394.8,425.9c0.2,0,0.9,1.4,1,1.6c1,1.3,2.3,2.5,3.7,3.3c3.9,2.3,8.4,1.6,12.3-0.1c2.3-1,4.5-2.7,4.7-5.4
		c0.2-2.2-2-3.1-3.9-3.3c-4.1-0.5-8,1.2-12,1.7c-0.9,0.1-1.9,0.1-2.8-0.1c-1.1-0.3-1.9-1.4-2.2,0.3"/>
	<path class="st69" d="M390.1,420c11.4,10.5,21.5,8.9,30.6-1.5 M402.9,373.3c0,0-7.4,19.2-6.9,23.4c0.4,3.3,9.7,1.5,9.7,1.5"/>
	<path class="st11" d="M436.2,284.3c-0.8-0.5-0.2,1.8-0.3,2.7c-0.1,1.8-0.1,3.7,0,5.5c0.1,5.2,0.3,10.5,0.7,15.7
		c1.7,19.4,8.5,43.6,26.6,54.4c4.7,2.8,10.1,4,15.3,5.4c0.5,0.1,4.5,1.5,4.9,0.9c0.4-0.7-0.2-2.4-0.3-3c-0.5-3.2-1.2-6.4-2-9.5
		c-3.3-12.5-8-24.7-12.8-36.7c-3-7.6-6.3-15-9.5-22.5c-4.8-11.4-9.6-23.8-21.5-29.5c-9.9-4.8-19.8-2.9-30.3-2.2
		c-12.7,0.9-26.7-1.2-38,5.9c-8.5,5.3-13.5,14.7-17.1,23.7c-6.1,15.4-10.6,31.9-9.9,48.5c0.2,4.7-1.5,11.3,0,15.7
		c1,3,7.7,4.6,10.1,5.1c10.6,2.4,22.7-0.2,32.3-5.1c7.4-3.8,13.4-9.6,19.2-15.5c12.2-12.6,21.9-26.5,27.4-43.3c2-6,5.2-13.5,5.2-20"
		/>
	<path class="st4" d="M349.2,398.3c0.1-1.5,3.3-9.9,2.1-18c-1.4-9.8-7.2-19.4-7.7-19.8c-0.6-0.4-1.2-0.7-1.3-0.8
		c-0.8-0.3-1.5-0.5-2.3-0.7c-2.3-0.4-4.5,0.2-6.4,1.5c-5.3,3.6-6.9,11.5-6.8,17.5c0.1,8.2,3,17.4,9.1,23.1
		C340.6,405.6,347.8,404.9,349.2,398.3L349.2,398.3z"/>
	<path class="st4" d="M462.9,398.3c-0.1-1.5-3.3-9.9-2.1-18c1.4-9.8,7.2-19.4,7.7-19.8c0.6-0.4,1.2-0.7,1.3-0.8
		c0.8-0.3,1.5-0.5,2.3-0.7c2.3-0.4,4.5,0.2,6.4,1.5c5.3,3.6,6.9,11.5,6.8,17.5c-0.1,8.2-3,17.4-9.1,23.1
		C471.5,405.6,464.3,404.9,462.9,398.3L462.9,398.3z"/>
	<path class="st61" d="M389.4,721.9c-0.7-0.3-12.3-95-13.7-94.5c-0.3,0.1,1.9,16.9,1.9,17.7c1.3,12.1,2.3,24.4,2.4,36.6
		c0.2,15.1-1.3,29.1-3.9,43.8c-0.2,1.4-3.2,13.4-2.2,14.2c0.3,0.3,1-0.4,1.3-0.6C382.4,733.1,382,727.7,389.4,721.9L389.4,721.9z"/>
	<path class="st62" d="M396.5,699.1c-3.2,0.7-9,2-12.9,4.8c-12,8.8-18.8,20.3-9.3,33.3c5.3,7.2,21.9,11.5,29.2,6.7
		c7.7-5.1,3.9-13.5,18.6-30.5c5.7-6.5,26.1-10.9,11.8-15.7L396.5,699.1L396.5,699.1z"/>
	<path class="st70" d="M523.3,651.8c0,0-9.4-7.6-24.7-17.2c-18.3-11.5-67.7-48.8-67.7-48.8l2.2-13.3c0,0-26.1-12.3-26.9-12.6
		L387.7,479C413.2,504.4,459.9,599.1,523.3,651.8L523.3,651.8z"/>
	<path class="st71" d="M484,589.4c0,0-44.3-20.8-64.6-49.8L387.8,479C423.5,515.4,460.5,564.5,484,589.4L484,589.4z"/>
	<path class="st72" d="M528.1,590.5c5.4-1.7,11.6,2.7,13.8,9.8c2.2,7.1-0.5,14.1-5.9,15.8c-5.4,1.7-11.6-2.7-13.8-9.8
		C520,599.3,522.7,592.2,528.1,590.5L528.1,590.5z"/>
	<path class="st6" d="M387.5,473.3c-5.5,0.6-11.2,5.2-14.3,13.2c-4.2,10.7-4.2,27.8,7.1,47.7c9.8,17.5,21.8,25.7,30.9,32.4
		c5.4,3.9,9.7,7.1,11.4,11.7l5.5-2.1c-2.1-5.6-7-9.7-13.5-14.4c-8.6-6.3-20-14-29.3-30.5c-10.1-17.9-10.5-33.1-6.7-42.7
		c2.2-5.5,5.7-9.1,9.5-9.5L387.5,473.3L387.5,473.3z"/>
	<path class="st73" d="M506.7,562.1c0,0,8.1,9.6,15,19.7l0,0c3.1,4.6,6,9.2,7.8,13.1c1.1,2.3,1.8,4.4,1.8,5.9l3.8,0
		c0-1.9-0.8-4.5-2.1-7.4c-1.9-4.1-4.8-8.9-8.1-13.7c-7-10.2-15.2-20-15.2-20L506.7,562.1L506.7,562.1z"/>
	<path class="st73" d="M448.3,665.5c1.9,0,3.5,1.5,3.5,3.5c0,1.9-1.6,3.5-3.5,3.5c-1.9,0-3.5-1.6-3.5-3.5
		C444.8,667.1,446.4,665.5,448.3,665.5L448.3,665.5z"/>
	<path class="st73" d="M474.2,650.8c1.9,0,3.5,1.6,3.5,3.5c0,1.9-1.5,3.5-3.5,3.5c-1.9,0-3.5-1.5-3.5-3.5
		C470.8,652.3,472.3,650.8,474.2,650.8L474.2,650.8z"/>
	<path class="st74" d="M531.5,593.4c3.7-1.1,7.8,1.8,9.3,6.6c1.5,4.8-0.3,9.6-4,10.7c-3.7,1.1-7.8-1.8-9.3-6.6
		C526,599.4,527.8,594.6,531.5,593.4L531.5,593.4z"/>
	<path class="st6" d="M430.4,473.2c1.1-0.3,2.3-0.1,3.7,0.4c2.7,0.9,5.7,2.9,8.6,5.5c7.6,6.8,14.7,18.1,14.5,28.8
		c-0.2,8.5,5.7,17.4,14.1,25.8c11.6,11.6,27.8,22.3,35.5,30l4.1-4.2c-7.7-7.6-23.9-18.4-35.5-30c-7.1-7.1-12.6-14.4-12.4-21.5
		c0.4-14.4-10.6-29.9-20.8-36.8c-5-3.4-9.8-4.7-13.4-3.8L430.4,473.2L430.4,473.2z"/>
	<path class="st73" d="M459.2,605.3c0,0,7,19.4,10.9,34.1c1.6,6.1,2.7,11.3,2.5,13.8c-0.1,1,0.7,2,1.7,2.1c1,0.1,2-0.7,2.1-1.7
		c0.3-2.8-0.8-8.6-2.6-15.2c-4-14.9-11-34.5-11-34.5c-0.4-1-1.4-1.5-2.4-1.1C459.4,603.3,458.9,604.4,459.2,605.3L459.2,605.3z"/>
	<path class="st73" d="M413.5,630.6c0,0,12.3,16.8,22.4,28.4c4.5,5.2,8.6,9.3,11.1,10.7c0.9,0.5,2.1,0.2,2.6-0.8
		c0.5-0.9,0.2-2.1-0.8-2.6c-2.3-1.2-6-5.1-10.1-9.8c-10-11.5-22.2-28.2-22.2-28.2c-0.6-0.8-1.8-1-2.7-0.4
		C413,628.6,412.8,629.8,413.5,630.6L413.5,630.6z"/>
	<path class="st6" d="M424.3,637.5c-11.2-17-14-30.9-11.7-40.8c1.4-6.1,4.8-10.5,9.1-13.1c11.4-6.6,28.7-0.2,36.4,22.1
		c0.5,1.5,2.2,2.3,3.7,1.8c1.5-0.5,2.3-2.2,1.8-3.7c-9.3-26.9-31.2-33.2-44.9-25.2c-13.5,7.8-20.5,30.2,0.5,62.2
		c0.9,1.4,2.7,1.7,4.1,0.8C424.8,640.7,425.2,638.9,424.3,637.5L424.3,637.5z"/>
	<path class="st6" d="M411.2,611.6c11-16.9,25.5-22.2,43.3-17.3c1,0.3,2.1-0.3,2.3-1.3c0.3-1-0.3-2.1-1.3-2.3
		c-19.5-5.4-35.5,0.3-47.5,18.9c-0.6,0.9-0.3,2.1,0.6,2.6C409.5,612.8,410.6,612.5,411.2,611.6L411.2,611.6z"/>
	<path class="st70" d="M523.3,651.8c0,0-63.2-148.7-87.7-172.1c0,0,56,42.3,67.2,61.3l-9.1,17.1l13.8,6.5
		C507.4,564.7,521.7,639,523.3,651.8L523.3,651.8z"/>
	<path class="st71" d="M484,589.4c-8.3-28.4-44.1-98.8-48.4-109.6c0,0,30.5,29.2,41.7,48.1C477.2,527.9,493.3,567.9,484,589.4
		L484,589.4z"/>
</g>
</svg>
